<svg width="46" height="46" viewBox="0 0 46 46" fill="none" xmlns="http://www.w3.org/2000/svg">
<path d="M23 3.83333C20.4583 3.83333 18.0208 4.843 16.2236 6.64023C14.4263 8.43745 13.4167 10.875 13.4167 13.4167C13.4167 15.9583 14.4263 18.3959 16.2236 20.1931C18.0208 21.9903 20.4583 23 23 23C25.5417 23 27.9792 21.9903 29.7764 20.1931C31.5737 18.3959 32.5833 15.9583 32.5833 13.4167C32.5833 10.875 31.5737 8.43745 29.7764 6.64023C27.9792 4.843 25.5417 3.83333 23 3.83333ZM7.66667 42.1667H38.3333C39.3875 42.1667 40.25 41.3042 40.25 40.25V38.3333C40.25 30.935 34.2317 24.9167 26.8333 24.9167H19.1667C11.7683 24.9167 5.75 30.935 5.75 38.3333V40.25C5.75 41.3042 6.6125 42.1667 7.66667 42.1667Z" fill="#FF499E" fill-opacity="0.8"/>
</svg>
