<svg width="46" height="46" viewBox="0 0 46 46" fill="none" xmlns="http://www.w3.org/2000/svg">
<path fill-rule="evenodd" clip-rule="evenodd" d="M23.0007 3.83333C24.7276 3.83333 26.4008 4.06333 27.9936 4.49267C26.9985 5.01518 26.1785 5.81783 25.6347 6.8014C25.0909 7.78496 24.8473 8.90632 24.934 10.0268C25.0206 11.1474 25.4338 12.2179 26.1223 13.1062C26.8109 13.9945 27.7446 14.6615 28.8082 15.0248L29.5327 15.272C29.8102 15.3666 30.0624 15.5236 30.2697 15.7309C30.4771 15.9383 30.6341 16.1904 30.7287 16.468L30.9778 17.1925C31.3417 18.255 32.0088 19.1876 32.8966 19.8753C33.7845 20.563 34.8543 20.9756 35.974 21.0623C37.0938 21.1489 38.2143 20.9057 39.1974 20.3628C40.1805 19.8199 40.9831 19.0009 41.5061 18.0071C41.9451 19.6351 42.1675 21.3139 42.1673 23C42.1673 33.5858 33.5864 42.1667 23.0007 42.1667H7.66732C6.65065 42.1667 5.67563 41.7628 4.95674 41.0439C4.23785 40.325 3.83398 39.35 3.83398 38.3333V23C3.83398 12.4143 12.4149 3.83333 23.0007 3.83333ZM23.0007 26.8333H17.2507C16.7423 26.8333 16.2548 27.0353 15.8954 27.3947C15.5359 27.7542 15.334 28.2417 15.334 28.75C15.334 29.2583 15.5359 29.7458 15.8954 30.1053C16.2548 30.4647 16.7423 30.6667 17.2507 30.6667H23.0007C23.509 30.6667 23.9965 30.4647 24.3559 30.1053C24.7154 29.7458 24.9173 29.2583 24.9173 28.75C24.9173 28.2417 24.7154 27.7542 24.3559 27.3947C23.9965 27.0353 23.509 26.8333 23.0007 26.8333ZM28.7507 19.1667H17.2507C16.7423 19.1667 16.2548 19.3686 15.8954 19.728C15.5359 20.0875 15.334 20.575 15.334 21.0833C15.334 21.5917 15.5359 22.0792 15.8954 22.4386C16.2548 22.7981 16.7423 23 17.2507 23H28.7507C29.259 23 29.7465 22.7981 30.1059 22.4386C30.4654 22.0792 30.6673 21.5917 30.6673 21.0833C30.6673 20.575 30.4654 20.0875 30.1059 19.728C29.7465 19.3686 29.259 19.1667 28.7507 19.1667ZM36.4173 1.91667C36.8171 1.91683 37.2069 2.04201 37.532 2.27468C37.8571 2.50736 38.1013 2.83588 38.2305 3.21425L38.4797 3.93875C39.0547 5.6235 40.3772 6.94792 42.0638 7.52292L42.7864 7.77017C43.1644 7.89968 43.4924 8.14407 43.7246 8.46916C43.9569 8.79426 44.0817 9.1838 44.0817 9.58333C44.0817 9.98287 43.9569 10.3724 43.7246 10.6975C43.4924 11.0226 43.1644 11.267 42.7864 11.3965L42.0619 11.6457C40.3772 12.2207 39.0527 13.5432 38.4777 15.2298L38.2305 15.9524C38.101 16.3304 37.8566 16.6584 37.5315 16.8907C37.2064 17.1229 36.8169 17.2478 36.4173 17.2478C36.0178 17.2478 35.6282 17.1229 35.3031 16.8907C34.9781 16.6584 34.7337 16.3304 34.6042 15.9524L34.355 15.2279C34.0711 14.3964 33.6005 13.6409 32.9792 13.0196C32.3578 12.3983 31.6024 11.9276 30.7708 11.6438L30.0482 11.3965C29.6703 11.267 29.3422 11.0226 29.11 10.6975C28.8777 10.3724 28.7529 9.98287 28.7529 9.58333C28.7529 9.1838 28.8777 8.79426 29.11 8.46916C29.3422 8.14407 29.6703 7.89968 30.0482 7.77017L30.7727 7.521C32.4575 6.946 33.7819 5.6235 34.3569 3.93683L34.6042 3.21425C34.7333 2.83588 34.9775 2.50736 35.3026 2.27468C35.6278 2.04201 36.0175 1.91683 36.4173 1.91667Z" fill="#FF499E" fill-opacity="0.8"/>
</svg>
