<svg width="24" height="26" viewBox="0 0 24 26" fill="none" xmlns="http://www.w3.org/2000/svg">
<path fill-rule="evenodd" clip-rule="evenodd" d="M11.6696 0C12.1825 0.000907377 12.6808 0.170775 13.0874 0.483331C13.4941 0.795888 13.7864 1.23372 13.9192 1.72911C14.052 2.2245 14.0179 2.74985 13.8222 3.22391C13.6264 3.69796 13.2799 4.09432 12.8363 4.35167V4.66667H16.3363C17.5739 4.66667 18.7609 5.15833 19.6361 6.0335C20.5113 6.90867 21.0029 8.09566 21.0029 9.33333V9.39167C21.6613 9.5267 22.2529 9.88487 22.6777 10.4057C23.1025 10.9264 23.3345 11.5779 23.3345 12.25C23.3345 12.9221 23.1025 13.5736 22.6777 14.0943C22.2529 14.6151 21.6613 14.9733 21.0029 15.1083V16.3333C21.0029 17.571 20.5113 18.758 19.6361 19.6332C18.7609 20.5083 17.5739 21 16.3363 21H7.00292C5.76525 21 4.57826 20.5083 3.70309 19.6332C2.82792 18.758 2.33626 17.571 2.33626 16.3333V15.1083C1.67692 14.9744 1.08415 14.6167 0.65837 14.0958C0.232594 13.5749 0 12.9228 0 12.25C0 11.5772 0.232594 10.9251 0.65837 10.4042C1.08415 9.88326 1.67692 9.52555 2.33626 9.39167V9.33333C2.33626 8.09566 2.82792 6.90867 3.70309 6.0335C4.57826 5.15833 5.76525 4.66667 7.00292 4.66667H10.5029V4.35167C10.0593 4.09432 9.71278 3.69796 9.51703 3.22391C9.32127 2.74985 9.28716 2.2245 9.41998 1.72911C9.55279 1.23372 9.84512 0.795888 10.2518 0.483331C10.6584 0.170775 11.1567 0.000907377 11.6696 0ZM8.16959 10.5C7.86017 10.5 7.56343 10.6229 7.34463 10.8417C7.12584 11.0605 7.00292 11.3572 7.00292 11.6667V14C7.00292 14.3094 7.12584 14.6062 7.34463 14.825C7.56343 15.0437 7.86017 15.1667 8.16959 15.1667C8.47901 15.1667 8.77576 15.0437 8.99455 14.825C9.21334 14.6062 9.33626 14.3094 9.33626 14V11.6667C9.33626 11.3572 9.21334 11.0605 8.99455 10.8417C8.77576 10.6229 8.47901 10.5 8.16959 10.5ZM15.1696 10.5C14.8602 10.5 14.5634 10.6229 14.3446 10.8417C14.1258 11.0605 14.0029 11.3572 14.0029 11.6667V14C14.0029 14.3094 14.1258 14.6062 14.3446 14.825C14.5634 15.0437 14.8602 15.1667 15.1696 15.1667C15.479 15.1667 15.7758 15.0437 15.9945 14.825C16.2133 14.6062 16.3363 14.3094 16.3363 14V11.6667C16.3363 11.3572 16.2133 11.0605 15.9945 10.8417C15.7758 10.6229 15.479 10.5 15.1696 10.5Z" fill="white"/>
</svg>
