<svg width="20" height="20" viewBox="0 0 20 20" fill="none" xmlns="http://www.w3.org/2000/svg">
<path d="M11.666 2.5C12.3291 2.5 12.9649 2.76339 13.4338 3.23223C13.9026 3.70107 14.166 4.33696 14.166 5H16.666C17.108 5 17.532 5.17559 17.8445 5.48816C18.1571 5.80072 18.3327 6.22464 18.3327 6.66667V15.8333C18.3327 16.2754 18.1571 16.6993 17.8445 17.0118C17.532 17.3244 17.108 17.5 16.666 17.5H3.33268C2.89065 17.5 2.46673 17.3244 2.15417 17.0118C1.84161 16.6993 1.66602 16.2754 1.66602 15.8333V6.66667C1.66602 6.22464 1.84161 5.80072 2.15417 5.48816C2.46673 5.17559 2.89065 5 3.33268 5H5.83268C5.83268 4.33696 6.09607 3.70107 6.56492 3.23223C7.03376 2.76339 7.66964 2.5 8.33268 2.5H11.666ZM15.8327 8.33333H4.16602C3.95362 8.33357 3.74932 8.4149 3.59488 8.56071C3.44043 8.70651 3.34749 8.90579 3.33504 9.11783C3.32259 9.32986 3.39158 9.53865 3.5279 9.70153C3.66423 9.8644 3.8576 9.96908 4.06852 9.99417L4.16602 10H9.16602V10.8333C9.16625 11.0457 9.24758 11.25 9.39339 11.4045C9.5392 11.5589 9.73848 11.6519 9.95051 11.6643C10.1625 11.6768 10.3713 11.6078 10.5342 11.4714C10.6971 11.3351 10.8018 11.1417 10.8268 10.9308L10.8327 10.8333V10H15.8327C16.0451 9.99976 16.2494 9.91843 16.4038 9.77263C16.5583 9.62682 16.6512 9.42754 16.6637 9.2155C16.6761 9.00347 16.6071 8.79468 16.4708 8.63181C16.3345 8.46893 16.1411 8.36425 15.9302 8.33917L15.8327 8.33333ZM11.666 4.16667H8.33268C8.12857 4.16669 7.93157 4.24163 7.77904 4.37726C7.62651 4.5129 7.52906 4.69979 7.50518 4.9025L7.49935 5H12.4993C12.4993 4.79589 12.4244 4.59889 12.2888 4.44636C12.1531 4.29383 11.9662 4.19638 11.7635 4.1725L11.666 4.16667Z" fill="white"/>
</svg>
