<svg width="15" height="15" viewBox="0 0 15 15" fill="none" xmlns="http://www.w3.org/2000/svg">
<rect width="15" height="15" rx="7.5" fill="white"/>
<g clip-path="url(#clip0_572_1548)">
<mask id="mask0_572_1548" style="mask-type:luminance" maskUnits="userSpaceOnUse" x="3" y="3" width="9" height="9">
<path d="M12 3H3V12H12V3Z" fill="white"/>
</mask>
<g mask="url(#mask0_572_1548)">
<path d="M9.75006 5.25C9.52131 5.25 9.31131 5.11875 9.20631 4.91625L8.93631 4.3725C8.76381 4.03125 8.31381 3.75 7.93131 3.75H7.07256C6.68631 3.75 6.23631 4.03125 6.06381 4.3725L5.79381 4.91625C5.68881 5.11875 5.47881 5.25 5.25006 5.25C4.43631 5.25 3.79131 5.93625 3.84381 6.74625L4.03881 9.84375C4.08381 10.6163 4.50006 11.25 5.53506 11.25H9.46506C10.5001 11.25 10.9126 10.6163 10.9613 9.84375L11.1563 6.74625C11.2088 5.93625 10.5638 5.25 9.75006 5.25ZM6.93756 5.71875H8.06256C8.21631 5.71875 8.34381 5.84625 8.34381 6C8.34381 6.15375 8.21631 6.28125 8.06256 6.28125H6.93756C6.78381 6.28125 6.65631 6.15375 6.65631 6C6.65631 5.84625 6.78381 5.71875 6.93756 5.71875ZM7.50006 9.795C6.80256 9.795 6.23256 9.22875 6.23256 8.5275C6.23256 7.82625 6.79881 7.26 7.50006 7.26C8.20131 7.26 8.76756 7.82625 8.76756 8.5275C8.76756 9.22875 8.19756 9.795 7.50006 9.795Z" fill="#FF499E"/>
</g>
</g>
<defs>
<clipPath id="clip0_572_1548">
<rect width="9" height="9" fill="white" transform="translate(3 3)"/>
</clipPath>
</defs>
</svg>
