<svg width="10" height="10" viewBox="0 0 10 10" fill="none" xmlns="http://www.w3.org/2000/svg">
<mask id="mask0_203_380" style="mask-type:luminance" maskUnits="userSpaceOnUse" x="0" y="0" width="10" height="10">
<path d="M10 0H0V10H10V0Z" fill="white"/>
</mask>
<g mask="url(#mask0_203_380)">
<path d="M6.77018 9.37496C7.17289 9.37496 7.49935 9.0485 7.49935 8.64579C7.49935 8.24308 7.17289 7.91663 6.77018 7.91663C6.36747 7.91663 6.04102 8.24308 6.04102 8.64579C6.04102 9.0485 6.36747 9.37496 6.77018 9.37496Z" fill="white"/>
<path d="M3.43717 9.37496C3.83988 9.37496 4.16634 9.0485 4.16634 8.64579C4.16634 8.24308 3.83988 7.91663 3.43717 7.91663C3.03447 7.91663 2.70801 8.24308 2.70801 8.64579C2.70801 9.0485 3.03447 9.37496 3.43717 9.37496Z" fill="white"/>
<path d="M2.01634 1.64165L1.93301 2.66248C1.91634 2.85831 2.07051 3.02081 2.26634 3.02081H8.64551C8.82051 3.02081 8.96634 2.88748 8.97884 2.71248C9.03301 1.97498 8.47051 1.37498 7.73301 1.37498H2.61217C2.57051 1.19165 2.48717 1.01665 2.35801 0.870813C2.14967 0.64998 1.85801 0.520813 1.55801 0.520813H0.833008C0.662174 0.520813 0.520508 0.66248 0.520508 0.833313C0.520508 1.00415 0.662174 1.14581 0.833008 1.14581H1.55801C1.68717 1.14581 1.80801 1.19998 1.89551 1.29165C1.98301 1.38748 2.02467 1.51248 2.01634 1.64165Z" fill="white"/>
<path d="M8.54523 3.64581H2.15354C1.97854 3.64581 1.83687 3.77915 1.8202 3.94998L1.6702 5.76248C1.61187 6.47498 2.1702 7.08331 2.8827 7.08331H7.51606C8.14106 7.08331 8.69106 6.57081 8.73689 5.94581L8.87439 3.99998C8.89106 3.80831 8.74106 3.64581 8.54523 3.64581Z" fill="white"/>
</g>
</svg>
