<svg width="18" height="18" viewBox="0 0 18 18" fill="none" xmlns="http://www.w3.org/2000/svg">
<g clip-path="url(#clip0_168_1155)">
<mask id="mask0_168_1155" style="mask-type:luminance" maskUnits="userSpaceOnUse" x="0" y="0" width="18" height="18">
<path d="M18 0H0V18H18V0Z" fill="white"/>
</mask>
<g mask="url(#mask0_168_1155)">
<path d="M14.9698 6.72029C14.4673 6.16529 13.7098 5.84279 12.6598 5.73029V5.16029C12.6598 4.13279 12.2248 3.14279 11.4598 2.45279C10.6873 1.74779 9.68232 1.41779 8.63982 1.51529C6.84731 1.68779 5.33981 3.42029 5.33981 5.29529V5.73029C4.28981 5.84279 3.53231 6.16529 3.02981 6.72029C2.30231 7.5303 2.32481 8.6103 2.40731 9.3603L2.93231 13.5378C3.08981 15.0003 3.68231 16.5003 6.90731 16.5003H11.0923C14.3173 16.5003 14.9098 15.0003 15.0673 13.5453L15.5923 9.3528C15.6748 8.6103 15.6898 7.5303 14.9698 6.72029ZM8.74482 2.55779C9.49482 2.49029 10.2073 2.72279 10.7623 3.22529C11.3098 3.72029 11.6173 4.42529 11.6173 5.16029V5.68529H6.38231V5.29529C6.38231 3.96029 7.48481 2.67779 8.74482 2.55779ZM6.31481 9.8628H6.30731C5.89481 9.8628 5.55731 9.5253 5.55731 9.1128C5.55731 8.7003 5.89481 8.3628 6.30731 8.3628C6.72731 8.3628 7.06481 8.7003 7.06481 9.1128C7.06481 9.5253 6.72731 9.8628 6.31481 9.8628ZM11.5648 9.8628H11.5573C11.1448 9.8628 10.8073 9.5253 10.8073 9.1128C10.8073 8.7003 11.1448 8.3628 11.5573 8.3628C11.9773 8.3628 12.3148 8.7003 12.3148 9.1128C12.3148 9.5253 11.9773 9.8628 11.5648 9.8628Z" fill="white"/>
</g>
</g>
<defs>
<clipPath id="clip0_168_1155">
<rect width="18" height="18" fill="white"/>
</clipPath>
</defs>
</svg>
