<svg width="28" height="28" viewBox="0 0 28 28" fill="none" xmlns="http://www.w3.org/2000/svg">
<path d="M17.3632 3.5082L17.474 3.50004L17.6047 3.5047L17.7365 3.52454L17.8683 3.55954L24.8683 5.89287C25.0788 5.96302 25.2648 6.0917 25.4047 6.26383C25.5446 6.43595 25.6325 6.64439 25.6582 6.8647L25.6663 7.00004V12.8334C25.6663 13.1191 25.5614 13.3949 25.3715 13.6085C25.1816 13.822 24.92 13.9584 24.6362 13.9919L24.4997 14H22.1663V22.1667C22.1665 22.7554 21.9442 23.3224 21.5439 23.754C21.1437 24.1857 20.595 24.4501 20.008 24.4942L19.833 24.5H8.16634C7.57767 24.5002 7.01068 24.2779 6.57904 23.8776C6.14739 23.4774 5.88299 22.9287 5.83884 22.3417L5.83301 22.1667V14H3.49967C3.21392 14 2.93811 13.8951 2.72457 13.7052C2.51103 13.5153 2.37461 13.2537 2.34117 12.9699L2.33301 12.8334V7.00004C2.33293 6.77819 2.39611 6.56092 2.51513 6.37371C2.63416 6.1865 2.80409 6.0371 3.00501 5.94304L3.13101 5.89287L10.131 3.55954C10.3064 3.50112 10.4932 3.48522 10.6759 3.51314C10.8586 3.54106 11.0321 3.61201 11.1821 3.72014C11.332 3.82826 11.4541 3.97047 11.5383 4.13505C11.6225 4.29962 11.6664 4.48184 11.6663 4.6667C11.6636 5.27218 11.8964 5.85501 12.3155 6.29205C12.7345 6.72909 13.307 6.98612 13.9121 7.00884C14.5172 7.03155 15.1074 6.81818 15.558 6.4138C16.0087 6.00941 16.2845 5.44568 16.3272 4.8417L16.3377 4.5617L16.3575 4.42987L16.4007 4.27354L16.452 4.15337L16.5103 4.04604L16.5897 3.93754L16.6702 3.8442C16.7347 3.78198 16.8028 3.72754 16.8743 3.68087L16.9863 3.61904L17.1065 3.5677L17.2325 3.53037L17.3632 3.5082Z" fill="white"/>
</svg>
