<svg width="18" height="18" viewBox="0 0 18 18" fill="none" xmlns="http://www.w3.org/2000/svg">
<path d="M12.5625 6C12.5625 4.8915 12.315 3.82425 11.7323 3.01875C11.1322 2.1885 10.2098 1.6875 9 1.6875C7.79025 1.6875 6.8685 2.1885 6.26775 3.01875C5.685 3.82425 5.4375 4.8915 5.4375 6V6.9375H5.0025C4.60125 6.9375 4.2675 6.9375 3.99375 6.96C3.70875 6.98325 3.44175 7.0335 3.189 7.1625C2.80083 7.36025 2.48525 7.67583 2.2875 8.064C2.1585 8.31675 2.1075 8.5845 2.085 8.8695C2.0625 9.1425 2.0625 9.477 2.0625 9.8775V13.3725C2.0625 13.7738 2.0625 14.1075 2.085 14.3812C2.1075 14.6662 2.1585 14.934 2.2875 15.1868C2.48525 15.5749 2.80083 15.8905 3.189 16.0883C3.44175 16.2172 3.70875 16.2675 3.99375 16.2908C4.2675 16.3133 4.60125 16.3132 5.0025 16.3132H12.9975C13.3988 16.3132 13.7325 16.3133 14.0062 16.2908C14.2912 16.2675 14.5582 16.2172 14.811 16.0883C15.1992 15.8905 15.5147 15.5749 15.7125 15.1868C15.8415 14.934 15.8925 14.6662 15.915 14.3812C15.9375 14.1082 15.9375 13.7737 15.9375 13.3732V9.8775C15.9375 9.477 15.9375 9.1425 15.915 8.8695C15.8925 8.5845 15.8415 8.31675 15.7125 8.064C15.5151 7.67606 15.2001 7.36051 14.8125 7.1625C14.559 7.0335 14.292 6.98325 14.007 6.96C13.7333 6.9375 13.3995 6.9375 12.9982 6.9375H12.5632L12.5625 6ZM6.5625 6C6.5625 5.03775 6.78 4.23 7.179 3.678C7.5615 3.15075 8.139 2.8125 9 2.8125C9.861 2.8125 10.4392 3.15 10.821 3.678C11.22 4.23 11.4375 5.03775 11.4375 6V6.9375H6.5625V6ZM9.5625 11.4375V11.8125C9.5625 11.9617 9.50324 12.1048 9.39775 12.2102C9.29226 12.3157 9.14918 12.375 9 12.375C8.85082 12.375 8.70774 12.3157 8.60225 12.2102C8.49676 12.1048 8.4375 11.9617 8.4375 11.8125V11.4375C8.4375 11.2883 8.49676 11.1452 8.60225 11.0398C8.70774 10.9343 8.85082 10.875 9 10.875C9.14918 10.875 9.29226 10.9343 9.39775 11.0398C9.50324 11.1452 9.5625 11.2883 9.5625 11.4375ZM12 10.875C12.1492 10.875 12.2923 10.9343 12.3977 11.0398C12.5032 11.1452 12.5625 11.2883 12.5625 11.4375V11.8125C12.5625 11.9617 12.5032 12.1048 12.3977 12.2102C12.2923 12.3157 12.1492 12.375 12 12.375C11.8508 12.375 11.7077 12.3157 11.6023 12.2102C11.4968 12.1048 11.4375 11.9617 11.4375 11.8125V11.4375C11.4375 11.2883 11.4968 11.1452 11.6023 11.0398C11.7077 10.9343 11.8508 10.875 12 10.875ZM6.5625 11.4375V11.8125C6.5625 11.9617 6.50324 12.1048 6.39775 12.2102C6.29226 12.3157 6.14918 12.375 6 12.375C5.85082 12.375 5.70774 12.3157 5.60225 12.2102C5.49676 12.1048 5.4375 11.9617 5.4375 11.8125V11.4375C5.4375 11.2883 5.49676 11.1452 5.60225 11.0398C5.70774 10.9343 5.85082 10.875 6 10.875C6.14918 10.875 6.29226 10.9343 6.39775 11.0398C6.50324 11.1452 6.5625 11.2883 6.5625 11.4375Z" fill="#FF499E"/>
</svg>
