<svg width="24" height="24" viewBox="0 0 24 24" fill="none" xmlns="http://www.w3.org/2000/svg">
<g clip-path="url(#clip0_492_398)">
<mask id="mask0_492_398" style="mask-type:luminance" maskUnits="userSpaceOnUse" x="0" y="0" width="24" height="24">
<path d="M24 0H0V24H24V0Z" fill="white"/>
</mask>
<g mask="url(#mask0_492_398)">
<path d="M15.9404 23.35C15.5204 23.35 15.1704 23.07 15.0804 22.66L14.8004 21.44C14.6604 20.84 14.1904 20.37 13.6004 20.23L12.3704 19.95C11.9804 19.87 11.6904 19.51 11.6904 19.1C11.6904 18.69 11.9704 18.33 12.3804 18.24L13.5904 17.96C14.1904 17.82 14.6604 17.35 14.8004 16.76L15.0804 15.53C15.1704 15.13 15.5204 14.85 15.9304 14.85C16.3504 14.85 16.7004 15.14 16.7804 15.54L17.0604 16.75C17.2004 17.35 17.6704 17.82 18.2604 17.96L19.4904 18.24C19.8804 18.32 20.1704 18.68 20.1704 19.09C20.1704 19.5 19.8904 19.86 19.4904 19.95L18.2704 20.23C17.6704 20.37 17.2004 20.84 17.0604 21.43L16.7704 22.66C16.6904 23.05 16.3304 23.34 15.9204 23.34L15.9404 23.35ZM14.7604 19.12C15.2504 19.4 15.6604 19.81 15.9304 20.3C16.2104 19.81 16.6204 19.4 17.1104 19.13C16.6204 18.85 16.2104 18.44 15.9404 17.95C15.6604 18.44 15.2504 18.85 14.7604 19.12Z" fill="white"/>
<path d="M10.6604 22.15C10.6604 22.15 10.5904 22.15 10.5504 22.15C9.53037 22.01 8.54037 21.71 7.60037 21.26C7.45037 21.19 7.15037 21.15 7.01037 21.18L6.79037 21.23C6.12037 21.39 5.14037 21.63 4.31037 21.83C3.63037 22 2.99037 21.85 2.57037 21.43C2.15037 21.01 2.00037 20.37 2.17037 19.68L2.82037 16.98C2.85037 16.85 2.82037 16.56 2.74037 16.4C1.84037 14.51 1.54037 12.39 1.88037 10.27C2.58037 6.02999 6.03037 2.57999 10.2704 1.87999C13.6204 1.33999 16.8904 2.38999 19.2504 4.75999C21.6104 7.12999 22.6504 10.4 22.1104 13.73C21.9404 14.75 21.6304 15.73 21.1804 16.64C21.0004 17.01 20.5504 17.16 20.1804 16.98C19.8104 16.8 19.6604 16.35 19.8404 15.98C20.2204 15.2 20.4904 14.36 20.6304 13.49C21.1004 10.64 20.2104 7.83999 18.1904 5.81999C16.1704 3.79999 13.3704 2.89999 10.5104 3.35999C6.90037 3.95999 3.96037 6.89999 3.37037 10.52C3.08037 12.33 3.33037 14.15 4.10037 15.76C4.28037 16.14 4.42037 16.8 4.28037 17.35L3.63037 20.04C3.58037 20.26 3.62037 20.36 3.63037 20.37C3.64037 20.38 3.74037 20.43 3.96037 20.37C4.80037 20.17 5.77037 19.94 6.44037 19.78L6.67037 19.72C7.15037 19.61 7.80037 19.69 8.24037 19.9C9.04037 20.28 9.89037 20.53 10.7604 20.65C11.1704 20.71 11.4504 21.09 11.4004 21.5C11.3504 21.87 11.0304 22.15 10.6604 22.15Z" fill="white"/>
<path d="M17.4301 10.71C17.1301 10.71 16.8401 10.52 16.7301 10.22C16.2301 8.86998 15.1701 7.79998 13.8201 7.27998C13.4301 7.12998 13.2401 6.69998 13.3901 6.30998C13.5401 5.91998 13.9801 5.72998 14.3601 5.87998C16.1001 6.55998 17.4801 7.94998 18.1301 9.69998C18.2801 10.09 18.0801 10.52 17.6901 10.67C17.6001 10.7 17.5201 10.71 17.4301 10.71Z" fill="white"/>
</g>
</g>
<defs>
<clipPath id="clip0_492_398">
<rect width="24" height="24" fill="white"/>
</clipPath>
</defs>
</svg>
