<svg width="24" height="24" viewBox="0 0 24 24" fill="none" xmlns="http://www.w3.org/2000/svg">
<mask id="mask0_92_460" style="mask-type:luminance" maskUnits="userSpaceOnUse" x="0" y="0" width="24" height="24">
<path d="M24 0H0V24H24V0Z" fill="white"/>
</mask>
<g mask="url(#mask0_92_460)">
<path d="M15.3901 20.9301L14.1201 20.5901C13.3401 20.3701 12.8101 19.6701 12.8101 18.8501C12.8101 18.0301 13.3401 17.3201 14.1601 17.0901L15.3901 16.7701C16.0101 16.6001 16.4601 16.1401 16.6301 15.5401L16.9601 14.3201L17.0301 14.0901C17.3001 13.4001 17.9401 12.9201 18.6901 12.9201C19.4601 12.9201 20.1201 13.3601 20.3801 14.0501L20.7901 15.5101C20.8601 15.7501 20.9701 15.9501 21.1201 16.1301C21.4601 15.3601 21.7201 14.5601 21.8701 13.6901C22.9901 6.85011 17.1601 1.02011 10.3201 2.14011C6.16009 2.82011 2.81009 6.17011 2.14009 10.3201C1.79009 12.4801 2.13009 14.5301 2.97009 16.3001C3.11009 16.6001 3.18009 17.1101 3.10009 17.4401L2.42009 20.2801C2.19009 21.2301 2.77009 21.8101 3.72009 21.5801C4.71009 21.3501 5.88009 21.0601 6.57009 20.9001C6.90009 20.8201 7.40009 20.8901 7.70009 21.0301C9.55009 21.9101 11.7101 22.2401 13.9601 21.8101C14.6501 21.6801 15.3001 21.4601 15.9301 21.2001C15.7701 21.0801 15.5901 20.9901 15.3901 20.9301ZM13.3901 6.31011C13.5401 5.93011 13.9801 5.74011 14.3601 5.88011C16.1101 6.56011 17.4801 7.95011 18.1401 9.70011C18.2901 10.0901 18.0901 10.5201 17.7001 10.6601C17.6201 10.7001 17.5301 10.7101 17.4401 10.7101C17.1301 10.7101 16.8501 10.5301 16.7401 10.2301C16.2301 8.88011 15.1701 7.80011 13.8201 7.28011C13.4401 7.13011 13.2501 6.70011 13.3901 6.31011Z" fill="white"/>
<path d="M23.2101 18.8801C23.2101 18.9701 23.1601 19.1701 22.9201 19.2501L21.6501 19.6001C20.5601 19.9001 19.7401 20.7201 19.4401 21.8101L19.1001 23.0501C19.0201 23.3301 18.8001 23.3601 18.7001 23.3601C18.6001 23.3601 18.3801 23.3301 18.3001 23.0501L17.9601 21.8001C17.6601 20.7201 16.8301 19.9001 15.7501 19.6001L14.5001 19.2601C14.2301 19.1801 14.2001 18.9501 14.2001 18.8601C14.2001 18.7601 14.2301 18.5301 14.5001 18.4501L15.7601 18.1201C16.8401 17.8101 17.6601 16.9901 17.9601 15.9101L18.3201 14.6001C18.4101 14.3801 18.6101 14.3501 18.7001 14.3501C18.7901 14.3501 19.0001 14.3801 19.0801 14.5801L19.4401 15.9001C19.7401 16.9801 20.5701 17.8001 21.6501 18.1101L22.9401 18.4601C23.2001 18.5601 23.2101 18.8001 23.2101 18.8801Z" fill="white"/>
</g>
</svg>
