<svg width="18" height="18" viewBox="0 0 18 18" fill="none" xmlns="http://www.w3.org/2000/svg">
<path d="M5.46758 3.68101C7.81815 3.47673 10.182 3.47673 12.5326 3.68101L13.6658 3.77851C14.0292 3.81021 14.3787 3.9331 14.6819 4.13578C14.9851 4.33846 15.2323 4.61439 15.4006 4.93801C15.4202 4.97794 15.4241 5.02381 15.4115 5.06648C15.3988 5.10915 15.3706 5.14549 15.3323 5.16826L10.6328 8.07826C10.1382 8.38448 9.56924 8.54951 8.98754 8.55546C8.40584 8.56141 7.8336 8.40805 7.33283 8.11201L2.60258 5.31601C2.56529 5.29493 2.53692 5.26104 2.52271 5.22064C2.50851 5.18023 2.50944 5.13604 2.52533 5.09626C2.67861 4.73286 2.92815 4.41817 3.24706 4.18609C3.56596 3.95402 3.94215 3.81336 4.33508 3.77926L5.46758 3.68101Z" fill="#FF499E"/>
<path d="M2.52145 6.57526C2.49465 6.55939 2.46429 6.55049 2.43316 6.5494C2.40203 6.54831 2.37113 6.55505 2.34328 6.56901C2.31544 6.58297 2.29154 6.6037 2.2738 6.6293C2.25605 6.65489 2.24501 6.68454 2.2417 6.71551C2.05153 8.60389 2.09788 10.5086 2.3797 12.3855C2.45258 12.8663 2.68502 13.3086 3.03965 13.6413C3.39428 13.9741 3.85049 14.1779 4.33495 14.22L5.46745 14.3183C7.8187 14.523 10.1827 14.523 12.5339 14.3183L13.6664 14.2208C14.1511 14.1784 14.6074 13.9742 14.9619 13.641C15.3164 13.3078 15.5486 12.8651 15.6209 12.384C15.9109 10.4525 15.9515 8.49166 15.7417 6.54976C15.7381 6.51866 15.7266 6.48898 15.7085 6.46347C15.6903 6.43797 15.666 6.41746 15.6378 6.40384C15.6096 6.39023 15.5784 6.38396 15.5472 6.3856C15.5159 6.38725 15.4856 6.39676 15.4589 6.41326L11.2252 9.03376C10.5562 9.44779 9.78667 9.67092 8.99995 9.67898C8.21323 9.68705 7.4393 9.47974 6.76195 9.07951L2.52145 6.57526Z" fill="#FF499E"/>
</svg>
