<svg width="86" height="86" viewBox="0 0 86 86" fill="none" xmlns="http://www.w3.org/2000/svg">
<rect width="85.8261" height="85.8261" rx="42.913" fill="#FF499E" fill-opacity="0.5"/>
<g clip-path="url(#clip0_1182_2316)">
<rect x="8.58203" y="8.58252" width="68.6609" height="68.6609" rx="34.3304" fill="#FF499E" fill-opacity="0.6"/>
<g filter="url(#filter0_d_1182_2316)">
<rect x="18" y="18" width="50" height="50" rx="25" fill="#FF499E"/>
<path d="M38 52C37.45 52 36.9793 51.8043 36.588 51.413C36.1967 51.0217 36.0007 50.5507 36 50V37H35V35H40V34H46V35H51V37H50V50C50 50.55 49.8043 51.021 49.413 51.413C49.0217 51.805 48.5507 52.0007 48 52H38ZM40 48H42V39H40V48ZM44 48H46V39H44V48Z" fill="white"/>
</g>
</g>
<defs>
<filter id="filter0_d_1182_2316" x="-1.07246" y="-1.07246" width="88.1449" height="88.1449" filterUnits="userSpaceOnUse" color-interpolation-filters="sRGB">
<feFlood flood-opacity="0" result="BackgroundImageFix"/>
<feColorMatrix in="SourceAlpha" type="matrix" values="0 0 0 0 0 0 0 0 0 0 0 0 0 0 0 0 0 0 127 0" result="hardAlpha"/>
<feOffset/>
<feGaussianBlur stdDeviation="9.53623"/>
<feComposite in2="hardAlpha" operator="out"/>
<feColorMatrix type="matrix" values="0 0 0 0 1 0 0 0 0 0.286275 0 0 0 0 0.619608 0 0 0 0.1 0"/>
<feBlend mode="normal" in2="BackgroundImageFix" result="effect1_dropShadow_1182_2316"/>
<feBlend mode="normal" in="SourceGraphic" in2="effect1_dropShadow_1182_2316" result="shape"/>
</filter>
<clipPath id="clip0_1182_2316">
<rect x="8.58203" y="8.58252" width="68.6609" height="68.6609" rx="34.3304" fill="white"/>
</clipPath>
</defs>
</svg>
