<svg width="10" height="10" viewBox="0 0 10 10" fill="none" xmlns="http://www.w3.org/2000/svg">
<path d="M7.095 0H2.905C1.085 0 0 1.085 0 2.905V7.09C0 8.915 1.085 10 2.905 10H7.09C8.91 10 9.995 8.915 9.995 7.095V2.905C10 1.085 8.915 0 7.095 0ZM4.475 7.755C4.33 7.9 4.055 8.04 3.855 8.07L2.625 8.245C2.58 8.25 2.535 8.255 2.49 8.255C2.285 8.255 2.095 8.185 1.96 8.05C1.795 7.885 1.725 7.645 1.765 7.38L1.94 6.15C1.97 5.945 2.105 5.675 2.255 5.53L4.485 3.3C4.525 3.405 4.565 3.51 4.62 3.63C4.67 3.735 4.725 3.845 4.785 3.945C4.835 4.03 4.89 4.11 4.935 4.17C4.99 4.255 5.055 4.335 5.095 4.38C5.12 4.415 5.14 4.44 5.15 4.45C5.275 4.6 5.42 4.74 5.545 4.845C5.58 4.88 5.6 4.9 5.61 4.905C5.685 4.965 5.76 5.025 5.825 5.07C5.905 5.13 5.985 5.185 6.07 5.23C6.17 5.29 6.28 5.345 6.39 5.4C6.505 5.45 6.61 5.495 6.715 5.53L4.475 7.755ZM7.685 4.545L7.225 5.01C7.195 5.04 7.155 5.055 7.115 5.055C7.1 5.055 7.08 5.055 7.07 5.05C6.055 4.76 5.245 3.95 4.955 2.935C4.94 2.88 4.955 2.82 4.995 2.785L5.46 2.32C6.22 1.56 6.945 1.575 7.69 2.32C8.07 2.7 8.255 3.065 8.255 3.445C8.25 3.805 8.065 4.165 7.685 4.545Z" fill="white"/>
</svg>
