<svg width="20" height="20" viewBox="0 0 20 20" fill="none" xmlns="http://www.w3.org/2000/svg">
<path d="M13.7493 4.58333C14.1914 4.58333 14.6153 4.40774 14.9279 4.09518C15.2404 3.78262 15.416 3.35869 15.416 2.91667C15.416 2.47464 15.2404 2.05072 14.9279 1.73816C14.6153 1.42559 14.1914 1.25 13.7493 1.25C13.3073 1.25 12.8834 1.42559 12.5708 1.73816C12.2583 2.05072 12.0827 2.47464 12.0827 2.91667C12.0827 3.35869 12.2583 3.78262 12.5708 4.09518C12.8834 4.40774 13.3073 4.58333 13.7493 4.58333ZM10.7493 16.1667L11.5827 12.5L13.3327 14.1667V19.1667H14.9993V12.9167L13.2493 11.25L13.7493 8.75C14.3204 9.40427 15.0248 9.92872 15.8154 10.2881C16.6059 10.6474 17.4643 10.8333 18.3327 10.8333V9.16667C16.866 9.19167 15.4993 8.425 14.7493 7.16667L13.916 5.83333C13.616 5.33333 13.0827 5 12.4993 5C12.2493 5 12.0827 5.08333 11.8327 5.08333L7.49935 6.91667V10.8333H9.16602V8L10.666 7.41667L9.33268 14.1667L5.24935 13.3333L4.91602 15L10.7493 16.1667ZM3.33268 7.5C3.11167 7.5 2.89971 7.4122 2.74343 7.25592C2.58715 7.09964 2.49935 6.88768 2.49935 6.66667C2.49935 6.44565 2.58715 6.23369 2.74343 6.07741C2.89971 5.92113 3.11167 5.83333 3.33268 5.83333H5.83268V7.5H3.33268ZM4.16602 4.16667C3.945 4.16667 3.73304 4.07887 3.57676 3.92259C3.42048 3.76631 3.33268 3.55435 3.33268 3.33333C3.33268 3.11232 3.42048 2.90036 3.57676 2.74408C3.73304 2.5878 3.945 2.5 4.16602 2.5H8.33268V4.16667H4.16602ZM2.49935 10.8333C2.27834 10.8333 2.06637 10.7455 1.91009 10.5893C1.75381 10.433 1.66602 10.221 1.66602 10C1.66602 9.77899 1.75381 9.56702 1.91009 9.41074C2.06637 9.25446 2.27834 9.16667 2.49935 9.16667H5.83268V10.8333H2.49935Z" fill="white"/>
</svg>
