<svg width="25" height="25" viewBox="0 0 25 25" fill="none" xmlns="http://www.w3.org/2000/svg">
<g clip-path="url(#clip0_1390_2516)">
<mask id="mask0_1390_2516" style="mask-type:luminance" maskUnits="userSpaceOnUse" x="0" y="0" width="25" height="25">
<path d="M24.9398 0H0V24.9398H24.9398V0Z" fill="white"/>
</mask>
<g mask="url(#mask0_1390_2516)">
<path d="M17.5415 10.3916C14.8189 10.3916 12.6055 12.605 12.6055 15.3276C12.6055 16.2524 12.8653 17.1253 13.3225 17.8735C14.1746 19.3076 15.7437 20.2636 17.5415 20.2636C19.3392 20.2636 20.9083 19.2972 21.7604 17.8735C22.2177 17.1357 22.4775 16.2524 22.4775 15.3276C22.4775 12.605 20.2744 10.3916 17.5415 10.3916ZM19.3912 16.0862H18.3208V17.1981C18.3208 17.6241 17.9675 17.9774 17.5415 17.9774C17.1154 17.9774 16.7621 17.6241 16.7621 17.1981V16.0862H15.7022C15.2761 16.0862 14.9228 15.7329 14.9228 15.3068C14.9228 14.8808 15.2761 14.5274 15.7022 14.5274H16.7621V13.5091C16.7621 13.083 17.1154 12.7297 17.5415 12.7297C17.9675 12.7297 18.3208 13.083 18.3208 13.5091V14.5274H19.3912C19.8172 14.5274 20.1705 14.8808 20.1705 15.3068C20.1705 15.7329 19.8172 16.0862 19.3912 16.0862Z" fill="#FF499E"/>
<path d="M21.3846 4.17747V6.48439C21.3846 7.32611 20.8651 8.37566 20.3455 8.90563L20.1584 9.07189C20.013 9.20698 19.7947 9.23816 19.6077 9.17581C19.3999 9.10307 19.192 9.05111 18.9842 8.99915C18.527 8.88484 18.0386 8.83289 17.5398 8.83289C13.9547 8.83289 11.045 11.7425 11.045 15.3276C11.045 16.5123 11.3672 17.6761 11.9803 18.6737C12.4999 19.5466 13.2273 20.274 14.017 20.7624C14.256 20.9183 14.3496 21.2508 14.1417 21.4379C14.069 21.5002 13.9962 21.5522 13.9235 21.6041L12.4687 22.5498C11.1178 23.3915 9.2577 22.4458 9.2577 20.7624V15.2029C9.2577 14.4651 8.84204 13.5195 8.42638 12.9999L4.48798 8.80171C3.9684 8.27174 3.55273 7.32611 3.55273 6.70262V4.28138C3.55273 3.024 4.48798 2.07837 5.62066 2.07837H19.3167C20.4494 2.07837 21.3846 3.024 21.3846 4.17747Z" fill="#FF499E"/>
</g>
</g>
<defs>
<clipPath id="clip0_1390_2516">
<rect width="24.9398" height="24.9398" fill="white"/>
</clipPath>
</defs>
</svg>
