<svg width="18" height="18" viewBox="0 0 18 18" fill="none" xmlns="http://www.w3.org/2000/svg">
<g clip-path="url(#clip0_168_1142)">
<mask id="mask0_168_1142" style="mask-type:luminance" maskUnits="userSpaceOnUse" x="0" y="0" width="18" height="18">
<path d="M18 0H0V18H18V0Z" fill="white"/>
</mask>
<g mask="url(#mask0_168_1142)">
<path d="M12.6592 7.5C10.6942 7.5 9.09668 9.0975 9.09668 11.0625C9.09668 11.73 9.28418 12.36 9.61418 12.9C10.2292 13.935 11.3617 14.625 12.6592 14.625C13.9567 14.625 15.0892 13.9275 15.7042 12.9C16.0342 12.3675 16.2217 11.73 16.2217 11.0625C16.2217 9.0975 14.6317 7.5 12.6592 7.5ZM13.9942 11.61H13.2217V12.4125C13.2217 12.72 12.9667 12.975 12.6592 12.975C12.3517 12.975 12.0967 12.72 12.0967 12.4125V11.61H11.3317C11.0242 11.61 10.7692 11.355 10.7692 11.0475C10.7692 10.74 11.0242 10.485 11.3317 10.485H12.0967V9.75C12.0967 9.4425 12.3517 9.1875 12.6592 9.1875C12.9667 9.1875 13.2217 9.4425 13.2217 9.75V10.485H13.9942C14.3017 10.485 14.5567 10.74 14.5567 11.0475C14.5567 11.355 14.3017 11.61 13.9942 11.61Z" fill="white"/>
<path d="M15.4344 3.015V4.68C15.4344 5.2875 15.0594 6.045 14.6844 6.4275L14.5494 6.5475C14.4444 6.645 14.2869 6.6675 14.1519 6.6225C14.0019 6.57 13.8519 6.5325 13.7019 6.495C13.3719 6.4125 13.0194 6.375 12.6594 6.375C10.0719 6.375 7.97194 8.475 7.97194 11.0625C7.97194 11.9175 8.20444 12.7575 8.64694 13.4775C9.02194 14.1075 9.54694 14.6325 10.1169 14.985C10.2894 15.0975 10.3569 15.3375 10.2069 15.4725C10.1544 15.5175 10.1019 15.555 10.0494 15.5925L8.99944 16.275C8.02444 16.8825 6.68195 16.2 6.68195 14.985V10.9725C6.68195 10.44 6.38195 9.7575 6.08195 9.3825L3.23945 6.3525C2.86445 5.97 2.56445 5.2875 2.56445 4.8375V3.09C2.56445 2.1825 3.23945 1.5 4.05695 1.5H13.9419C14.7594 1.5 15.4344 2.1825 15.4344 3.015Z" fill="white"/>
</g>
</g>
<defs>
<clipPath id="clip0_168_1142">
<rect width="18" height="18" fill="white"/>
</clipPath>
</defs>
</svg>
