<svg width="20" height="20" viewBox="0 0 20 20" fill="none" xmlns="http://www.w3.org/2000/svg">
<path d="M15.4162 13.3334H17.0454C17.3355 13.3334 17.6171 13.2355 17.8445 13.0555C18.072 12.8755 18.232 12.624 18.2987 12.3417C18.3653 12.0594 18.3347 11.7628 18.2117 11.5001C18.0888 11.2374 17.8807 11.0239 17.6212 10.8942L9.99958 7.08337L2.37791 10.8942C2.11844 11.0239 1.91037 11.2374 1.78741 11.5001C1.66445 11.7628 1.63381 12.0594 1.70046 12.3417C1.76711 12.624 1.92714 12.8755 2.15461 13.0555C2.38208 13.2355 2.66367 13.3334 2.95375 13.3334H4.58291" stroke="white" stroke-width="2" stroke-linecap="round" stroke-linejoin="round"/>
<path d="M4.58203 12.5H15.4154V18.3333H4.58203V12.5Z" fill="white" stroke="white" stroke-width="2" stroke-linecap="round" stroke-linejoin="round"/>
<path d="M9.9987 7.08335C9.9987 7.08335 11.6654 4.25419 11.6654 3.33335C11.6654 2.89133 11.4898 2.4674 11.1772 2.15484C10.8646 1.84228 10.4407 1.66669 9.9987 1.66669C9.55667 1.66669 9.13275 1.84228 8.82019 2.15484C8.50763 2.4674 8.33203 2.89133 8.33203 3.33335" stroke="white" stroke-width="2" stroke-linecap="round" stroke-linejoin="round"/>
</svg>
