<svg width="18" height="18" viewBox="0 0 18 18" fill="none" xmlns="http://www.w3.org/2000/svg">
<path d="M6.09375 15.9098C5.18125 15.5158 4.3845 14.9783 3.7035 14.2973C3.0225 13.6163 2.485 12.8193 2.091 11.9063C1.697 10.9933 1.5 10.0215 1.5 8.991C1.5 7.9605 1.697 6.99175 2.091 6.08475C2.485 5.17775 3.0225 4.384 3.7035 3.7035C4.3845 3.023 5.18125 2.4855 6.09375 2.091C7.00625 1.6965 7.97825 1.4995 9.00975 1.5C10.0412 1.5005 11.01 1.6975 11.916 2.091C12.822 2.4845 13.6157 3.022 14.2972 3.7035C14.9788 4.385 15.5162 5.17875 15.9097 6.08475C16.3032 6.99075 16.5 7.9595 16.5 8.991C16.5 10.0225 16.3032 10.9943 15.9097 11.9063C15.5162 12.8183 14.9788 13.6153 14.2972 14.2973C13.6157 14.9793 12.822 15.5168 11.916 15.9098C11.01 16.3028 10.0412 16.4995 9.00975 16.5C7.97825 16.5005 7.00625 16.3038 6.09375 15.9098ZM9 14.9625C9.325 14.5125 9.60625 14.0438 9.84375 13.5563C10.0813 13.0688 10.275 12.55 10.425 12H7.575C7.725 12.55 7.91875 13.0688 8.15625 13.5563C8.39375 14.0438 8.675 14.5125 9 14.9625ZM7.05 14.6625C6.825 14.25 6.62825 13.8218 6.45975 13.3778C6.29125 12.9338 6.1505 12.4745 6.0375 12H3.825C4.1875 12.625 4.64075 13.1688 5.18475 13.6313C5.72875 14.0938 6.3505 14.4375 7.05 14.6625ZM10.95 14.6625C11.65 14.4375 12.272 14.0938 12.816 13.6313C13.36 13.1688 13.813 12.625 14.175 12H11.9625C11.85 12.475 11.7095 12.9345 11.541 13.3785C11.3725 13.8225 11.1755 14.2505 10.95 14.6625ZM3.1875 10.5H5.7375C5.7 10.25 5.672 10.0033 5.6535 9.75975C5.635 9.51625 5.6255 9.263 5.625 9C5.6245 8.737 5.634 8.484 5.6535 8.241C5.673 7.998 5.701 7.751 5.7375 7.5H3.1875C3.125 7.75 3.07825 7.997 3.04725 8.241C3.01625 8.485 3.0005 8.738 3 9C2.9995 9.262 3.01525 9.51525 3.04725 9.75975C3.07925 10.0043 3.126 10.251 3.1875 10.5ZM7.2375 10.5H10.7625C10.8 10.25 10.8282 10.0033 10.8472 9.75975C10.8663 9.51625 10.8755 9.263 10.875 9C10.8745 8.737 10.865 8.484 10.8465 8.241C10.828 7.998 10.8 7.751 10.7625 7.5H7.2375C7.2 7.75 7.172 7.997 7.1535 8.241C7.135 8.485 7.1255 8.738 7.125 9C7.1245 9.262 7.134 9.51525 7.1535 9.75975C7.173 10.0043 7.201 10.251 7.2375 10.5ZM12.2625 10.5H14.8125C14.875 10.25 14.922 10.0033 14.9535 9.75975C14.985 9.51625 15.0005 9.263 15 9C14.9995 8.737 14.984 8.484 14.9535 8.241C14.923 7.998 14.876 7.751 14.8125 7.5H12.2625C12.3 7.75 12.3282 7.997 12.3472 8.241C12.3662 8.485 12.3755 8.738 12.375 9C12.3745 9.262 12.365 9.51525 12.3465 9.75975C12.328 10.0043 12.3 10.251 12.2625 10.5ZM11.9625 6H14.175C13.8125 5.375 13.3595 4.83125 12.816 4.36875C12.2725 3.90625 11.6505 3.5625 10.95 3.3375C11.175 3.75 11.372 4.17825 11.541 4.62225C11.71 5.06625 11.8505 5.5255 11.9625 6ZM7.575 6H10.425C10.275 5.45 10.0813 4.93125 9.84375 4.44375C9.60625 3.95625 9.325 3.4875 9 3.0375C8.675 3.4875 8.39375 3.95625 8.15625 4.44375C7.91875 4.93125 7.725 5.45 7.575 6ZM3.825 6H6.0375C6.15 5.525 6.29075 5.0655 6.45975 4.6215C6.62875 4.1775 6.8255 3.7495 7.05 3.3375C6.35 3.5625 5.728 3.90625 5.184 4.36875C4.64 4.83125 4.187 5.375 3.825 6Z" fill="#FF499E"/>
</svg>
