<svg width="12" height="12" viewBox="0 0 12 12" fill="none" xmlns="http://www.w3.org/2000/svg">
<path fill-rule="evenodd" clip-rule="evenodd" d="M10.497 4.125H1.50299C1.51649 2.807 1.59849 2.073 2.08599 1.586C2.67149 1 3.61449 1 5.49999 1H6.49999C8.38549 1 9.32849 1 9.91399 1.586C10.4015 2.073 10.4835 2.807 10.497 4.125ZM2.87499 2.75C2.87499 2.65054 2.9145 2.55516 2.98483 2.48483C3.05515 2.41451 3.15053 2.375 3.24999 2.375H4.74999C4.84945 2.375 4.94483 2.41451 5.01516 2.48483C5.08548 2.55516 5.12499 2.65054 5.12499 2.75C5.12499 2.84946 5.08548 2.94484 5.01516 3.01517C4.94483 3.08549 4.84945 3.125 4.74999 3.125H3.24999C3.15053 3.125 3.05515 3.08549 2.98483 3.01517C2.9145 2.94484 2.87499 2.84946 2.87499 2.75ZM7.24999 3.25C7.3826 3.25 7.50978 3.19732 7.60354 3.10355C7.69731 3.00979 7.74999 2.88261 7.74999 2.75C7.74999 2.61739 7.69731 2.49021 7.60354 2.39645C7.50978 2.30268 7.3826 2.25 7.24999 2.25C7.11738 2.25 6.99021 2.30268 6.89644 2.39645C6.80267 2.49021 6.74999 2.61739 6.74999 2.75C6.74999 2.88261 6.80267 3.00979 6.89644 3.10355C6.99021 3.19732 7.11738 3.25 7.24999 3.25ZM9.24999 2.75C9.24999 2.88261 9.19731 3.00979 9.10354 3.10355C9.00978 3.19732 8.8826 3.25 8.74999 3.25C8.61738 3.25 8.4902 3.19732 8.39644 3.10355C8.30267 3.00979 8.24999 2.88261 8.24999 2.75C8.24999 2.61739 8.30267 2.49021 8.39644 2.39645C8.4902 2.30268 8.61738 2.25 8.74999 2.25C8.8826 2.25 9.00978 2.30268 9.10354 2.39645C9.19731 2.49021 9.24999 2.61739 9.24999 2.75Z" fill="white"/>
<path d="M4.875 7.5C4.875 7.20163 4.99353 6.91548 5.2045 6.7045C5.41548 6.49353 5.70163 6.375 6 6.375C6.29837 6.375 6.58452 6.49353 6.7955 6.7045C7.00647 6.91548 7.125 7.20163 7.125 7.5C7.125 7.79837 7.00647 8.08452 6.7955 8.2955C6.58452 8.50647 6.29837 8.625 6 8.625C5.70163 8.625 5.41548 8.50647 5.2045 8.2955C4.99353 8.08452 4.875 7.79837 4.875 7.5Z" fill="white"/>
<path fill-rule="evenodd" clip-rule="evenodd" d="M1.5 4.875H10.5V6.5C10.5 8.3855 10.5 9.3285 9.914 9.914C9.76062 10.0665 9.57701 10.1852 9.375 10.2625V11C9.375 11.0995 9.33549 11.1948 9.26517 11.2652C9.19484 11.3355 9.09946 11.375 9 11.375C8.90054 11.375 8.80516 11.3355 8.73483 11.2652C8.66451 11.1948 8.625 11.0995 8.625 11V10.4355C8.09 10.5 7.403 10.5 6.5 10.5H5.5C4.597 10.5 3.91 10.5 3.375 10.4355V11C3.375 11.0995 3.33549 11.1948 3.26517 11.2652C3.19484 11.3355 3.09946 11.375 3 11.375C2.90054 11.375 2.80516 11.3355 2.73483 11.2652C2.66451 11.1948 2.625 11.0995 2.625 11V10.2625C2.42299 10.1852 2.23938 10.0665 2.086 9.914C1.5 9.3285 1.5 8.3855 1.5 6.5V4.875ZM6 5.625C5.50272 5.625 5.02581 5.82254 4.67417 6.17417C4.32254 6.52581 4.125 7.00272 4.125 7.5C4.125 7.99728 4.32254 8.4742 4.67417 8.82583C5.02581 9.17746 5.50272 9.375 6 9.375C6.49728 9.375 6.97419 9.17746 7.32583 8.82583C7.67746 8.4742 7.875 7.99728 7.875 7.5C7.875 7.00272 7.67746 6.52581 7.32583 6.17417C6.97419 5.82254 6.49728 5.625 6 5.625Z" fill="white"/>
</svg>
