<svg width="20" height="20" viewBox="0 0 20 20" fill="none" xmlns="http://www.w3.org/2000/svg">
<path d="M5.87475 9.90938L6.73178 8.99922L7.18686 9.42891C10.063 12.1383 12.949 13.7867 16.3451 14.627C16.8033 13.377 16.8439 12.0012 16.4482 10.659C15.9232 8.87813 14.7005 7.32656 12.9134 6.17227C11.3412 5.15664 9.92124 4.91875 8.41772 4.6668C7.59272 4.52852 6.73803 4.38555 5.80639 4.10313C4.09624 3.58437 2.30288 2.04297 2.28491 2.02773L1.30522 1.17773L1.25053 2.47383C1.24663 2.57383 1.156 4.95703 1.806 8.24609C2.49272 11.7227 3.7685 14.334 5.5978 16.0051C7.08217 17.3602 9.02045 18.1105 10.9466 18.1105C11.3099 18.1108 11.6726 18.0837 12.0318 18.0297C13.6615 17.7828 15.0173 16.9645 15.7818 15.7738C12.2857 14.8645 9.29936 13.1352 6.32866 10.3379L5.87475 9.90938Z" fill="white"/>
<path d="M18.2586 15.0074C17.6012 14.9063 16.9645 14.7793 16.3445 14.6258C16.2169 14.9737 16.0583 15.3094 15.8707 15.6289C15.8418 15.6777 15.8117 15.7262 15.7812 15.7738C16.5351 15.9691 17.2985 16.1255 18.0684 16.2426L18.6863 16.3379L18.8762 15.1024L18.2586 15.0074Z" fill="white"/>
</svg>
