<svg width="40" height="40" viewBox="0 0 40 40" fill="none" xmlns="http://www.w3.org/2000/svg">
<path d="M27.9163 13.3333C27.9163 10.87 27.3663 8.49833 26.0713 6.70833C24.738 4.86333 22.688 3.75 19.9997 3.75C17.3113 3.75 15.263 4.86333 13.928 6.70833C12.633 8.49833 12.083 10.87 12.083 13.3333V15.4167H11.1163C10.2247 15.4167 9.48301 15.4167 8.87467 15.4667C8.24134 15.5183 7.64801 15.63 7.08634 15.9167C6.22375 16.3561 5.52246 17.0574 5.08301 17.92C4.79634 18.4817 4.68301 19.0767 4.63301 19.71C4.58301 20.3167 4.58301 21.06 4.58301 21.95V29.7167C4.58301 30.6083 4.58301 31.35 4.63301 31.9583C4.68301 32.5917 4.79634 33.1867 5.08301 33.7483C5.52246 34.6109 6.22375 35.3122 7.08634 35.7517C7.64801 36.0383 8.24134 36.15 8.87467 36.2017C9.48301 36.2517 10.2247 36.2517 11.1163 36.2517H28.883C29.7747 36.2517 30.5163 36.2517 31.1247 36.2017C31.758 36.15 32.3513 36.0383 32.913 35.7517C33.7756 35.3122 34.4769 34.6109 34.9163 33.7483C35.203 33.1867 35.3163 32.5917 35.3663 31.9583C35.4163 31.3517 35.4163 30.6083 35.4163 29.7183V21.95C35.4163 21.06 35.4163 20.3167 35.3663 19.71C35.3163 19.0767 35.203 18.4817 34.9163 17.92C34.4778 17.0579 33.7777 16.3567 32.9163 15.9167C32.353 15.63 31.7597 15.5183 31.1263 15.4667C30.518 15.4167 29.7763 15.4167 28.8847 15.4167H27.918L27.9163 13.3333ZM14.583 13.3333C14.583 11.195 15.0663 9.4 15.953 8.17333C16.803 7.00167 18.0863 6.25 19.9997 6.25C21.913 6.25 23.198 7 24.0463 8.17333C24.933 9.4 25.4163 11.195 25.4163 13.3333V15.4167H14.583V13.3333ZM21.2497 25.4167V26.25C21.2497 26.5815 21.118 26.8995 20.8836 27.1339C20.6491 27.3683 20.3312 27.5 19.9997 27.5C19.6682 27.5 19.3502 27.3683 19.1158 27.1339C18.8814 26.8995 18.7497 26.5815 18.7497 26.25V25.4167C18.7497 25.0851 18.8814 24.7672 19.1158 24.5328C19.3502 24.2984 19.6682 24.1667 19.9997 24.1667C20.3312 24.1667 20.6491 24.2984 20.8836 24.5328C21.118 24.7672 21.2497 25.0851 21.2497 25.4167ZM26.6663 24.1667C26.9979 24.1667 27.3158 24.2984 27.5502 24.5328C27.7846 24.7672 27.9163 25.0851 27.9163 25.4167V26.25C27.9163 26.5815 27.7846 26.8995 27.5502 27.1339C27.3158 27.3683 26.9979 27.5 26.6663 27.5C26.3348 27.5 26.0169 27.3683 25.7825 27.1339C25.548 26.8995 25.4163 26.5815 25.4163 26.25V25.4167C25.4163 25.0851 25.548 24.7672 25.7825 24.5328C26.0169 24.2984 26.3348 24.1667 26.6663 24.1667ZM14.583 25.4167V26.25C14.583 26.5815 14.4513 26.8995 14.2169 27.1339C13.9825 27.3683 13.6645 27.5 13.333 27.5C13.0015 27.5 12.6835 27.3683 12.4491 27.1339C12.2147 26.8995 12.083 26.5815 12.083 26.25V25.4167C12.083 25.0851 12.2147 24.7672 12.4491 24.5328C12.6835 24.2984 13.0015 24.1667 13.333 24.1667C13.6645 24.1667 13.9825 24.2984 14.2169 24.5328C14.4513 24.7672 14.583 25.0851 14.583 25.4167Z" fill="white"/>
</svg>
