<svg width="20" height="20" viewBox="0 0 20 20" fill="none" xmlns="http://www.w3.org/2000/svg">
<path d="M10.625 15.8333C10.625 15.6676 10.5592 15.5086 10.4419 15.3914C10.3247 15.2742 10.1658 15.2083 10 15.2083H5C4.94475 15.2083 4.89176 15.1864 4.85269 15.1473C4.81362 15.1082 4.79167 15.0553 4.79167 15V5C4.79167 4.94474 4.81362 4.89175 4.85269 4.85268C4.89176 4.81361 4.94475 4.79166 5 4.79166H10C10.1658 4.79166 10.3247 4.72582 10.4419 4.60861C10.5592 4.4914 10.625 4.33242 10.625 4.16666C10.625 4.0009 10.5592 3.84193 10.4419 3.72472C10.3247 3.60751 10.1658 3.54166 10 3.54166H5C4.195 3.54166 3.54167 4.195 3.54167 5V15C3.54167 15.3868 3.69531 15.7577 3.9688 16.0312C4.24229 16.3047 4.61323 16.4583 5 16.4583H10C10.1658 16.4583 10.3247 16.3925 10.4419 16.2753C10.5592 16.1581 10.625 15.9991 10.625 15.8333Z" fill="white"/>
<path d="M6.98985 10.9292C6.98985 11.1502 7.07765 11.3621 7.23393 11.5184C7.39021 11.6747 7.60217 11.7625 7.82318 11.7625H11.8698C11.8893 12.0586 11.9132 12.3547 11.9415 12.6508L11.9665 12.905C11.9758 13.0008 12.0081 13.0929 12.0606 13.1736C12.1131 13.2542 12.1843 13.321 12.2681 13.3683C12.352 13.4156 12.446 13.4419 12.5422 13.4451C12.6384 13.4483 12.7339 13.4283 12.8207 13.3867C14.3444 12.6573 15.7236 11.6581 16.8915 10.4375L16.9165 10.4117C17.024 10.2999 17.084 10.1509 17.084 9.99583C17.084 9.84079 17.024 9.69177 16.9165 9.58L16.8915 9.55417C15.7236 8.33355 14.3444 7.3344 12.8207 6.605C12.7339 6.5634 12.6384 6.54334 12.5422 6.54654C12.446 6.54974 12.352 6.57609 12.2681 6.62336C12.1843 6.67064 12.1131 6.73744 12.0606 6.81809C12.0081 6.89875 11.9758 6.99088 11.9665 7.08667L11.9415 7.34083C11.9132 7.63639 11.8893 7.9325 11.8698 8.22917H7.82318C7.60217 8.22917 7.39021 8.31696 7.23393 8.47324C7.07765 8.62952 6.98985 8.84149 6.98985 9.0625V10.9292Z" fill="white"/>
</svg>
