<svg width="199" height="208" viewBox="0 0 199 208" fill="none" xmlns="http://www.w3.org/2000/svg">
<path d="M9.41724 189.092H14.2727C15.5198 189.092 16.6739 188.88 17.7352 188.455C18.8231 188.004 19.765 187.381 20.561 186.585C21.3835 185.789 22.007 184.86 22.4315 183.799C22.8826 182.737 23.1081 181.583 23.1081 180.336C23.1081 179.089 22.8826 177.935 22.4315 176.874C21.9805 175.786 21.3569 174.844 20.561 174.048C19.765 173.252 18.8231 172.628 17.7352 172.177C16.6739 171.726 15.5198 171.501 14.2727 171.501H9.41724V189.092ZM3.64639 194.226V166.367H14.3523C16.4484 166.367 18.3853 166.725 20.163 167.441C21.9407 168.131 23.4928 169.113 24.8195 170.386C26.1461 171.66 27.1809 173.146 27.9238 174.844C28.6932 176.542 29.0779 178.373 29.0779 180.336C29.0779 182.326 28.7065 184.157 27.9636 185.828C27.2207 187.5 26.1726 188.973 24.8195 190.246C23.4928 191.493 21.9407 192.475 20.163 193.191C18.3853 193.881 16.4484 194.226 14.3523 194.226H3.64639ZM33.0292 194.226V166.367H46.6405C48.5243 166.367 50.1826 166.738 51.6154 167.481C53.0747 168.198 54.2023 169.206 54.9983 170.506C55.8208 171.806 56.2321 173.305 56.2321 175.003C56.2321 176.781 55.7412 178.346 54.7595 179.699C53.7778 181.053 52.4644 182.061 50.8194 182.724L56.9882 194.226H50.5408L45.0883 183.56H38.8001V194.226H33.0292ZM38.8001 178.824H46.1231C47.4232 178.824 48.458 178.479 49.2274 177.789C50.0234 177.099 50.4214 176.197 50.4214 175.083C50.4214 173.968 50.0234 173.066 49.2274 172.376C48.458 171.687 47.4232 171.342 46.1231 171.342H38.8001V178.824ZM60.0413 194.226V166.367H65.8121V194.226H60.0413ZM70.8849 194.226V166.367H84.8544C86.6851 166.367 88.2904 166.738 89.6701 167.481C91.0763 168.224 92.1774 169.259 92.9734 170.585C93.7694 171.886 94.1673 173.398 94.1673 175.123C94.1673 176.768 93.7694 178.24 92.9734 179.54C92.1774 180.84 91.0763 181.862 89.6701 182.605C88.2638 183.348 86.6586 183.719 84.8544 183.719H76.6558V194.226H70.8849ZM76.6558 178.943H84.2176C85.4646 178.943 86.4596 178.598 87.2025 177.908C87.972 177.219 88.3567 176.303 88.3567 175.162C88.3567 173.995 87.972 173.066 87.2025 172.376C86.4596 171.687 85.4646 171.342 84.2176 171.342H76.6558V178.943ZM105.188 194.226V171.461H95.7951V166.367H120.311V171.461H110.958V194.226H105.188ZM115.791 194.226L127.253 166.367H133.899L145.242 194.226H138.993L136.168 186.903H124.666L121.8 194.226H115.791ZM126.457 182.286H134.417L130.437 172.018L126.457 182.286ZM147.607 194.226V166.367H153.378V189.132H168.621V194.226H147.607ZM172.598 194.226V166.367H178.369V178.824L190.547 166.367H197.592L184.06 179.62L198.228 194.226H190.507L178.369 181.291V194.226H172.598Z" fill="white"/>
<path d="M78.9801 142.281C85.1444 142.281 90.1416 137.284 90.1416 131.12C90.1416 124.955 85.1444 119.958 78.9801 119.958C72.8158 119.958 67.8186 124.955 67.8186 131.12C67.8186 137.284 72.8158 142.281 78.9801 142.281Z" fill="url(#paint0_linear_1_1135)"/>
<path d="M152.765 38.9446C143.719 -5.73174 94.2255 -0.120616 88.9487 0.604994C88.6106 0.650582 88.2649 0.692367 87.923 0.71896L63.8258 2.80841C47.9118 4.71551 50.8484 20.5384 50.8484 20.5384L54.4005 63.2088C67.0284 61.1649 74.7594 66.0543 74.7594 66.0543C98.4082 80.0118 83.5617 98.589 83.5617 98.589C109.919 97.2593 115.831 95.3484 115.831 95.3484C163.121 81.9683 152.765 38.9446 152.765 38.9446ZM114.816 68.6452C111.69 70.4117 108.183 71.3919 104.604 71.635L87.4291 72.8089L83.5617 26.5408L100.209 25.2529C102.762 25.0554 105.338 25.177 107.841 25.724C122.916 29.0102 124.766 43.2071 124.766 43.2071C127.436 58.1371 120.754 65.2907 114.816 68.6452Z" fill="url(#paint1_linear_1_1135)"/>
<path d="M81.8293 79.9549C80.1046 75.9014 76.0814 70.8373 66.6865 68.7669C60.5548 67.4182 54.1307 67.8361 48.3676 70.3359C43.4251 72.4785 38.2318 76.4257 36.9212 83.6742C36.5147 85.9308 36.6705 88.2709 37.4341 90.4326C38.5016 93.4414 40.9633 97.5747 46.6581 100.622C47.0114 100.811 47.2317 101.176 47.2317 101.575C47.2203 103.003 46.8366 106.483 43.672 109.846C43.5163 110.013 43.6226 110.286 43.8506 110.305C45.8451 110.484 52.7669 110.548 58.473 103.759C58.7085 103.478 59.0542 103.319 59.4189 103.33C62.6063 103.425 78.2582 103.22 82.2624 90.2996C83.3147 86.8957 83.2236 83.2373 81.8293 79.9549ZM51.6044 88.8864C50.0354 88.8864 48.7627 87.6137 48.7627 86.0409C48.7627 84.4719 50.0354 83.1993 51.6044 83.1993C53.1734 83.1993 54.446 84.4719 54.446 86.0409C54.446 87.6137 53.1734 88.8864 51.6044 88.8864ZM59.8368 88.8864C58.2678 88.8864 56.9952 87.6137 56.9952 86.0409C56.9952 84.4719 58.2678 83.1993 59.8368 83.1993C61.4096 83.1993 62.6823 84.4719 62.6823 86.0409C62.6823 87.6137 61.4096 88.8864 59.8368 88.8864ZM68.0731 88.8864C66.5003 88.8864 65.2276 87.6137 65.2276 86.0409C65.2276 84.4719 66.5003 83.1993 68.0731 83.1993C69.6421 83.1993 70.9148 84.4719 70.9148 86.0409C70.9148 87.6137 69.6421 88.8864 68.0731 88.8864Z" fill="url(#paint2_linear_1_1135)"/>
<path d="M2.05378 43.967C0.86089 41.9877 0.678536 39.5373 1.51812 37.3871C2.44888 35.0013 4.74348 32.1293 10.4002 31.9203L26.0597 30.7958C30.0449 30.5109 34.0529 31.3467 37.5062 33.3525C41.4685 35.6547 45.5069 39.8488 46.4034 47.4734L48.1586 64.8767C48.1586 64.8767 39.759 67.2093 34.7557 75.8102C34.7557 75.8102 31.9102 56.8532 31.4239 49.6731C31.4391 49.6921 31.6253 45.2358 26.5574 45.8741L8.69066 47.2075C8.68686 47.2113 4.32939 47.7394 2.05378 43.967Z" fill="url(#paint3_linear_1_1135)"/>
<path d="M54.6243 112.281C54.6243 112.281 58.7158 110.879 59.8365 108.614C59.8365 108.614 72.7569 109.013 79.5572 102.414C79.5572 102.414 116.449 116.193 145.607 84.9922C145.607 84.9922 161.251 72.2808 158.763 43.0322C158.763 43.0322 158.497 35.9205 166.319 35.2101C166.319 35.2101 172.986 35.2101 173.431 42.2344C173.431 42.2344 177.032 68.2804 162.763 92.1496C162.763 92.1496 158.763 101.921 148.095 111.323C148.095 111.323 138.495 107.661 131.205 113.173C131.205 113.173 125.092 117.018 124.294 124.418C124.294 124.418 119.667 125.927 113.703 127.157C111.803 127.549 109.869 127.765 107.928 127.807L94.6886 128.084C94.6886 128.084 91.866 118.682 81.0882 117.284C80.6893 117.284 72.4226 116.019 67.3548 121.618C67.3586 121.615 56.9683 115.897 54.6243 112.281Z" fill="url(#paint4_linear_1_1135)"/>
<path d="M140.851 135.348C147.015 135.348 152.012 130.351 152.012 124.187C152.012 118.022 147.015 113.025 140.851 113.025C134.686 113.025 129.689 118.022 129.689 124.187C129.689 130.351 134.686 135.348 140.851 135.348Z" fill="url(#paint5_linear_1_1135)"/>
<defs>
<linearGradient id="paint0_linear_1_1135" x1="87.3595" y1="115.92" x2="67.9099" y2="140.132" gradientUnits="userSpaceOnUse">
<stop stop-color="#FF499E"/>
<stop offset="1" stop-color="#7E5EFF"/>
</linearGradient>
<linearGradient id="paint1_linear_1_1135" x1="172.015" y1="106.221" x2="20.3452" y2="38.2545" gradientUnits="userSpaceOnUse">
<stop stop-color="#72E8EA"/>
<stop offset="0.5251" stop-color="#7E5EFF"/>
<stop offset="1" stop-color="#FF499E"/>
</linearGradient>
<linearGradient id="paint2_linear_1_1135" x1="91.1831" y1="113.633" x2="24.1401" y2="82.2368" gradientUnits="userSpaceOnUse">
<stop stop-color="#72E8EA"/>
<stop offset="0.5251" stop-color="#7E5EFF"/>
<stop offset="1" stop-color="#FF499E"/>
</linearGradient>
<linearGradient id="paint3_linear_1_1135" x1="56.5253" y1="79.2992" x2="-12.8402" y2="48.1937" gradientUnits="userSpaceOnUse">
<stop stop-color="#72E8EA"/>
<stop offset="0.5251" stop-color="#7E5EFF"/>
<stop offset="1" stop-color="#FF499E"/>
</linearGradient>
<linearGradient id="paint4_linear_1_1135" x1="194.986" y1="135.274" x2="33.3021" y2="46.334" gradientUnits="userSpaceOnUse">
<stop stop-color="#72E8EA"/>
<stop offset="0.5251" stop-color="#7E5EFF"/>
<stop offset="1" stop-color="#FF499E"/>
</linearGradient>
<linearGradient id="paint5_linear_1_1135" x1="149.23" y1="108.987" x2="129.78" y2="133.199" gradientUnits="userSpaceOnUse">
<stop stop-color="#FF499E"/>
<stop offset="1" stop-color="#7E5EFF"/>
</linearGradient>
</defs>
</svg>
