<svg width="20" height="20" viewBox="0 0 20 20" fill="none" xmlns="http://www.w3.org/2000/svg">
<path d="M19.2052 9.50234C19.1255 9.36228 19.0187 9.2395 18.891 9.14118C18.7633 9.04285 18.6172 8.97096 18.4615 8.92969C17.8963 8.78431 17.3122 8.72583 16.7294 8.75625C17.0419 7.20547 16.8075 5.97891 16.5732 5.25156C16.4776 4.95283 16.2742 4.70034 16.0028 4.54323C15.7313 4.38612 15.4111 4.33562 15.1044 4.40156C14.3094 4.57857 13.5535 4.89947 12.874 5.34844C12.3762 4.33178 11.6516 3.44304 10.756 2.75078C10.5389 2.588 10.275 2.5 10.0036 2.5C9.73233 2.5 9.46834 2.588 9.2513 2.75078C8.35427 3.44261 7.62829 4.33138 7.12942 5.34844C6.44988 4.89947 5.69395 4.57857 4.89895 4.40156C4.59238 4.33529 4.27211 4.38565 4.00067 4.54282C3.72924 4.69999 3.52612 4.95268 3.43099 5.25156C3.19661 5.97891 2.96224 7.20469 3.27005 8.75625C2.68725 8.72583 2.10321 8.78431 1.53802 8.92969C1.38223 8.97096 1.23622 9.04285 1.10852 9.14118C0.98082 9.2395 0.87399 9.36228 0.794267 9.50234C0.710938 9.64572 0.656971 9.80425 0.635511 9.96869C0.61405 10.1331 0.625525 10.3002 0.669267 10.4602C0.93411 11.443 1.74739 13.3109 4.21067 14.7828C6.67395 16.2547 8.83802 16.25 10.0036 16.25C11.1693 16.25 13.3372 16.25 15.7849 14.7828C18.2482 13.3109 19.0615 11.443 19.3263 10.4602C19.3706 10.3004 19.3827 10.1335 19.362 9.96909C19.3412 9.80465 19.2879 9.64599 19.2052 9.50234ZM4.8513 13.7102C2.77083 12.4664 2.09505 10.9414 1.87474 10.1328C2.44953 9.99086 3.04613 9.95984 3.63255 10.0414C3.8283 10.5659 4.06741 11.0731 4.34739 11.5578C5.03481 12.7429 5.93535 13.7907 7.00364 14.6484C6.24824 14.4312 5.52461 14.1157 4.8513 13.7102ZM9.99973 14.875C9.27083 14.3328 7.49974 12.6695 7.49974 9.31016C7.49974 5.99219 9.24817 4.31562 9.99973 3.75C10.7513 4.31719 12.4997 5.99375 12.4997 9.31172C12.4997 12.6695 10.7286 14.3328 9.99973 14.875ZM18.1247 10.1344C17.9083 10.9344 17.2341 12.4633 15.149 13.7102C14.4756 14.1155 13.752 14.4306 12.9966 14.6477C14.0649 13.7899 14.9654 12.7421 15.6529 11.557C15.9328 11.0723 16.172 10.5651 16.3677 10.0406C16.954 9.95986 17.5503 9.99141 18.1247 10.1336V10.1344Z" fill="white"/>
</svg>
