<svg width="28" height="28" viewBox="0 0 28 28" fill="none" xmlns="http://www.w3.org/2000/svg">
<path d="M6.70646 16.0393L12.3508 21.6837C13.1278 22.4618 13.5175 22.8503 14.0005 22.8503C14.4835 22.8503 14.8731 22.4618 15.6501 21.6837L21.2945 16.0393C22.2861 15.0477 22.7831 14.5507 22.9348 13.9055C23.0865 13.2603 22.8648 12.5953 22.4215 11.2642L22.0645 10.1908C21.5511 8.65083 21.2945 7.88083 20.6831 7.441C20.0718 7.00117 19.2598 7 17.637 7H10.364C8.74112 7 7.92912 7 7.31896 7.441C6.70646 7.88083 6.44979 8.65083 5.93646 10.1908L5.57946 11.2642C5.13612 12.5942 4.91446 13.2603 5.06612 13.9055C5.21779 14.5507 5.71479 15.0465 6.70646 16.0393Z" fill="white"/>
</svg>
