<svg width="20" height="20" viewBox="0 0 20 20" fill="none" xmlns="http://www.w3.org/2000/svg">
<path d="M16.6673 3.33337V8.33337H15.0007V6.18754L11.6882 9.47921C11.952 9.8681 12.1534 10.2814 12.2923 10.7192C12.4312 11.157 12.5007 11.6117 12.5007 12.0834C12.5007 13.3612 12.0562 14.4445 11.1673 15.3334C10.2784 16.2223 9.1951 16.6667 7.91732 16.6667C6.63954 16.6667 5.55621 16.2223 4.66732 15.3334C3.77843 14.4445 3.33398 13.3612 3.33398 12.0834C3.33398 10.8056 3.77843 9.72226 4.66732 8.83337C5.55621 7.94449 6.63954 7.50004 7.91732 7.50004C8.37565 7.50004 8.82704 7.56587 9.27148 7.69754C9.71593 7.82921 10.1257 8.03421 10.5007 8.31254L13.8132 5.00004H11.6673V3.33337H16.6673ZM5.85482 10.0209C5.28537 10.5903 5.00065 11.2778 5.00065 12.0834C5.00065 12.8889 5.28537 13.5764 5.85482 14.1459C6.42426 14.7153 7.11176 15 7.91732 15C8.72287 15 9.41037 14.7153 9.97982 14.1459C10.5493 13.5764 10.834 12.8889 10.834 12.0834C10.834 11.2778 10.5493 10.5903 9.97982 10.0209C9.41037 9.45143 8.72287 9.16671 7.91732 9.16671C7.11176 9.16671 6.42426 9.45143 5.85482 10.0209Z" fill="white"/>
</svg>
