<svg width="18" height="18" viewBox="0 0 18 18" fill="none" xmlns="http://www.w3.org/2000/svg">
<path d="M4.212 15C3.876 15 3.59 14.882 3.354 14.646C3.118 14.41 3 14.1243 3 13.7887V5.6145C3 5.4685 3.02325 5.331 3.06975 5.202C3.11625 5.073 3.18625 4.95425 3.27975 4.84575L4.44825 3.44325C4.55675 3.29675 4.6925 3.18625 4.8555 3.11175C5.0185 3.03725 5.19325 3 5.37975 3H12.5917C12.7778 3 12.9548 3.03725 13.1227 3.11175C13.2907 3.18625 13.429 3.2965 13.5375 3.4425L14.7203 4.875C14.8138 4.9835 14.8837 5.10475 14.9303 5.23875C14.9767 5.37225 15 5.51225 15 5.65875V13.7887C15 14.1237 14.882 14.4095 14.646 14.646C14.41 14.882 14.1243 15 13.7887 15H4.212ZM4.035 5.106H13.95L12.9525 3.9075C12.904 3.8595 12.8485 3.82125 12.786 3.79275C12.7235 3.76425 12.6585 3.75 12.591 3.75H5.394C5.327 3.75 5.262 3.7645 5.199 3.7935C5.136 3.8225 5.081 3.861 5.034 3.909L4.035 5.106ZM11.2492 5.856H6.75V9.9585C6.75 10.1885 6.84475 10.3635 7.03425 10.4835C7.22375 10.6035 7.4195 10.6105 7.6215 10.5045L9 9.822L10.3792 10.5045C10.5807 10.61 10.7763 10.603 10.9658 10.4835C11.1553 10.3635 11.25 10.1885 11.25 9.9585L11.2492 5.856Z" fill="#FF499E"/>
</svg>
