<svg width="46" height="46" viewBox="0 0 46 46" fill="none" xmlns="http://www.w3.org/2000/svg">
<path d="M42.2268 20.8439L38.1328 14.0532C37.8332 13.56 37.4121 13.152 36.9097 12.8682C36.4074 12.5843 35.8406 12.434 35.2636 12.4317H32.0493V11.9544C32.0494 11.2652 31.9133 10.5828 31.6488 9.9463C31.3844 9.30984 30.9968 8.73189 30.5083 8.24566C29.5209 7.26174 28.184 6.70904 26.79 6.70849H7.65593C6.61453 6.7016 5.59476 7.00561 4.72714 7.58164C3.85953 8.15766 3.18353 8.97947 2.78568 9.94191C2.52244 10.58 2.3895 11.2642 2.39468 11.9544V29.1239C2.39576 29.9303 2.68896 30.709 3.22001 31.3158C3.75106 31.9226 4.48398 32.3164 5.28309 32.4244C5.27415 32.5969 5.27415 32.7688 5.28309 32.94C5.27628 33.7529 5.43371 34.5588 5.74593 35.3094C6.05816 36.06 6.51875 36.7398 7.10009 37.3081C7.67055 37.9018 8.3534 38.3762 9.10889 38.7036C9.86438 39.031 10.6774 39.2049 11.5008 39.2152C13.144 39.2002 14.7161 38.5425 15.8803 37.3828C17.0436 36.225 17.7045 34.6559 17.7203 33.0147C17.7302 32.8564 17.7302 32.6977 17.7203 32.5394H28.2793C28.2694 32.6977 28.2694 32.8564 28.2793 33.0147C28.2722 33.828 28.4295 34.6343 28.7417 35.3852C29.054 36.1361 29.5147 36.8163 30.0963 37.3847C30.6672 37.9789 31.3506 38.4536 32.1068 38.781C32.863 39.1084 33.6768 39.2821 34.5008 39.2918C36.144 39.2769 37.7161 38.6192 38.8803 37.4595C40.0429 36.3013 40.7031 34.7323 40.7184 33.0914C40.7283 32.9325 40.7283 32.7731 40.7184 32.6142H42.1674C42.5455 32.6087 42.9066 32.4565 43.1745 32.1897C43.4424 31.9229 43.5961 31.5624 43.603 31.1843V25.672C43.603 23.9662 43.1258 22.2948 42.2268 20.8439ZM14.83 32.9381C14.8306 33.3762 14.7428 33.81 14.5719 34.2134C14.4009 34.6168 14.1504 34.9816 13.8353 35.286C13.1976 35.8919 12.3516 36.2297 11.472 36.2297C10.5924 36.2297 9.74641 35.8919 9.10876 35.286C8.79796 34.9759 8.55184 34.6071 8.3847 34.2011C8.21755 33.7951 8.13271 33.3599 8.13509 32.9208C8.12609 32.4675 8.21773 32.0178 8.40343 31.6041C8.65643 31.0042 9.09151 30.4982 9.64543 30.1532C10.212 29.7787 10.8793 29.5861 11.5583 29.6012C12.2061 29.6012 12.8386 29.7928 13.3753 30.1532C13.9253 30.5039 14.3585 31.008 14.6211 31.6041C14.8089 32.0162 14.9086 32.4666 14.9067 32.9208L14.83 32.9381ZM21.0477 23.4007H11.4835C10.9772 23.4002 10.4916 23.1994 10.1328 22.8421C9.77408 22.4848 9.57129 22 9.56876 21.4937C9.56825 21.2425 9.61741 20.9937 9.71341 20.7616C9.8094 20.5295 9.95035 20.3187 10.1281 20.1413C10.3059 19.9639 10.517 19.8234 10.7493 19.7278C10.9816 19.6323 11.2304 19.5836 11.4816 19.5847H21.0477C21.554 19.5857 22.0394 19.787 22.3978 20.1447C22.7562 20.5023 22.9585 20.9873 22.9605 21.4937C22.9608 21.7447 22.9114 21.9932 22.8153 22.2251C22.7192 22.457 22.5782 22.6676 22.4005 22.8448C22.2227 23.022 22.0117 23.1623 21.7796 23.2577C21.5474 23.3532 21.2987 23.4017 21.0477 23.4007ZM21.0477 16.8381H11.4835C10.9772 16.8376 10.4916 16.6367 10.1328 16.2794C9.77408 15.9221 9.57129 15.4373 9.56876 14.931C9.56851 14.68 9.61785 14.4314 9.71396 14.1995C9.81007 13.9677 9.95105 13.7571 10.1288 13.5799C10.3065 13.4027 10.5176 13.2623 10.7497 13.1669C10.9819 13.0715 11.2306 13.0229 11.4816 13.0239H21.0477C21.5537 13.0249 22.0388 13.226 22.3971 13.5832C22.7555 13.9405 22.958 14.425 22.9605 14.931C22.9608 15.182 22.9114 15.4306 22.8153 15.6624C22.7192 15.8943 22.5782 16.1049 22.4005 16.2821C22.2227 16.4593 22.0117 16.5997 21.7796 16.6951C21.5474 16.7905 21.2987 16.8391 21.0477 16.8381ZM37.7878 32.9381C37.7882 33.3763 37.7001 33.8102 37.5288 34.2136C37.3576 34.617 37.1067 34.9818 36.7912 35.286C36.1536 35.8913 35.308 36.2288 34.4289 36.2288C33.5497 36.2288 32.7041 35.8913 32.0666 35.286C31.7554 34.976 31.509 34.6073 31.3415 34.2013C31.174 33.7953 31.0889 33.36 31.091 32.9208C31.0829 32.2258 31.3053 31.5478 31.7235 30.9927C32.195 30.3659 32.8716 29.9193 33.6363 29.7334H34.1155C34.2031 29.7125 34.2943 29.7125 34.3819 29.7334H34.7653C35.346 29.8005 35.8999 30.0171 36.3714 30.364C36.8448 30.7109 37.2148 31.1786 37.4428 31.7191C37.6326 32.1312 37.7303 32.5816 37.7303 33.0339L37.7878 32.9381Z" fill="#FF499E" fill-opacity="0.8"/>
<path d="M34.4226 29.5818C34.3344 29.5606 34.2425 29.5606 34.1543 29.5818H34.4226Z" fill="#FF499E" fill-opacity="0.8"/>
</svg>
