<svg width="20" height="20" viewBox="0 0 20 20" fill="none" xmlns="http://www.w3.org/2000/svg">
<g clip-path="url(#clip0_1204_1887)">
<path fill-rule="evenodd" clip-rule="evenodd" d="M10.1762 0.287163C10.0432 0.333239 9.92051 0.405092 9.81524 0.498614C9.70997 0.592136 9.62416 0.705492 9.56273 0.832199C9.5013 0.958907 9.46545 1.09648 9.45723 1.23705C9.44901 1.37763 9.46858 1.51844 9.51482 1.65145C9.92617 2.83655 9.87152 4.13372 9.36196 5.28002C9.24697 5.53993 9.23994 5.83488 9.34242 6.09998C9.44489 6.36507 9.64848 6.5786 9.90839 6.69359C10.1683 6.80858 10.4633 6.81561 10.7283 6.71314C10.9934 6.61066 11.207 6.40708 11.322 6.14716C12.0511 4.50514 12.1292 2.64746 11.5405 0.95002C11.4947 0.816702 11.4231 0.693729 11.3297 0.588149C11.2363 0.482569 11.123 0.396457 10.9963 0.334747C10.8695 0.273037 10.7318 0.236943 10.5911 0.228532C10.4504 0.220122 10.3094 0.23956 10.1762 0.285734M13.5377 4.11859C13.4987 3.83708 13.5731 3.5516 13.7445 3.32495C13.916 3.0983 14.1705 2.94904 14.452 2.91002C14.7335 2.871 15.019 2.9454 15.2456 3.11686C15.4723 3.28832 15.6215 3.5428 15.6605 3.82431C15.7973 4.80814 15.5697 5.80804 15.0205 6.63573C14.9427 6.75299 14.8425 6.85376 14.7257 6.93229C14.6089 7.01082 14.4778 7.06558 14.3398 7.09344C14.2018 7.12129 14.0598 7.12171 13.9216 7.09465C13.7835 7.06759 13.6521 7.01359 13.5348 6.93573C13.4176 6.85788 13.3168 6.75769 13.2383 6.64089C13.1597 6.52409 13.105 6.39297 13.0771 6.25501C13.0493 6.11705 13.0489 5.97495 13.0759 5.83683C13.103 5.69871 13.157 5.56727 13.2348 5.45002C13.4948 5.05799 13.6025 4.58448 13.5377 4.11859ZM5.13054 6.12859C5.52098 6.02857 5.93033 6.02848 6.32081 6.12835C6.7113 6.22822 7.07034 6.42482 7.36482 6.70002L7.38196 6.71716L12.9691 12.3043L12.9763 12.3114C13.2542 12.5975 13.4559 12.9488 13.5627 13.3332C13.6696 13.7175 13.6782 14.1225 13.5877 14.511C13.4973 14.8995 13.3107 15.2591 13.0451 15.5567C12.7795 15.8543 12.4434 16.0804 12.0677 16.2143L3.16482 19.5329L3.15482 19.5372C2.74134 19.6837 2.29502 19.7111 1.86672 19.6162C1.43843 19.5214 1.04538 19.3082 0.732382 19.0008C0.419382 18.6935 0.199013 18.3044 0.0963936 17.8779C-0.00622749 17.4514 0.0130291 17.0047 0.151964 16.5886L3.45625 7.69288C3.58291 7.31305 3.80259 6.97095 4.09527 6.69773C4.38795 6.42451 4.74433 6.22886 5.13196 6.12859M15.3148 11.3C15.765 11.1963 16.2376 11.264 16.6405 11.49C16.8887 11.6285 17.1817 11.6627 17.4551 11.5852C17.7285 11.5076 17.9599 11.3246 18.0984 11.0764C18.2369 10.8283 18.2711 10.5353 18.1935 10.2619C18.116 9.98847 17.933 9.75707 17.6848 9.61859C16.8201 9.13481 15.8065 8.98921 14.8405 9.21002C14.5634 9.27291 14.3226 9.44333 14.1711 9.68378C14.0196 9.92423 13.9698 10.215 14.0327 10.4922C14.0956 10.7693 14.266 11.0101 14.5064 11.1616C14.7469 11.3131 15.0377 11.3629 15.3148 11.3ZM18.4777 5.00002C18.8566 5.00002 19.2199 5.15053 19.4878 5.41844C19.7557 5.68635 19.9062 6.04971 19.9062 6.42859C19.9062 6.80747 19.7557 7.17084 19.4878 7.43874C19.2199 7.70665 18.8566 7.85716 18.4777 7.85716C18.0988 7.85716 17.7354 7.70665 17.4675 7.43874C17.1996 7.17084 17.0491 6.80747 17.0491 6.42859C17.0491 6.04971 17.1996 5.68635 17.4675 5.41844C17.7354 5.15053 18.0988 5.00002 18.4777 5.00002Z" fill="white"/>
</g>
<defs>
<clipPath id="clip0_1204_1887">
<rect width="20" height="20" fill="white" transform="matrix(-1 0 0 1 20 0)"/>
</clipPath>
</defs>
</svg>
