<svg width="15" height="18" viewBox="0 0 15 18" fill="none" xmlns="http://www.w3.org/2000/svg">
<g clip-path="url(#clip0_613_1380)">
<path d="M11.8895 3.96439L12.4828 0.980895C12.5149 0.821084 12.4987 0.65533 12.4362 0.504772C12.3737 0.354215 12.2678 0.225678 12.132 0.135556C11.9962 0.0454343 11.8366 -0.00218814 11.6736 -0.00123725C11.5106 -0.000286366 11.3515 0.0491947 11.2168 0.140895L11.2198 0.139395L7.20053 2.82515L7.14728 2.8649L7.13603 2.87315C7.11553 2.89015 7.09603 2.9079 7.07753 2.9264L7.05728 2.94515L7.01978 2.9864L7.00628 3.0044C6.99428 3.0194 6.98278 3.03489 6.97178 3.05089L6.96428 3.0629L6.93053 3.11989L6.92753 3.12665C6.91626 3.14764 6.906 3.16917 6.89678 3.19114V3.19414C6.88706 3.2177 6.87855 3.24173 6.87128 3.26614V3.27289L6.85328 3.34415C6.85378 3.35164 6.85278 3.35914 6.85028 3.36664C6.85028 3.38539 6.84353 3.40415 6.84203 3.42289L6.83828 3.49489V3.50389C6.83778 3.53089 6.83903 3.55815 6.84203 3.58565C6.84203 3.60215 6.84653 3.61864 6.84878 3.63515C6.85103 3.65165 6.84878 3.6554 6.85328 3.66514L6.87278 3.74465C6.87978 3.76664 6.88728 3.78815 6.89528 3.80914L6.89903 3.82039L6.92903 3.88489L6.93428 3.89539C6.94578 3.91639 6.95803 3.93689 6.97103 3.95689L6.97553 3.96439V3.96739L9.65828 7.9829C9.7481 8.11765 9.87579 8.2228 10.0253 8.28512C10.1747 8.34744 10.3393 8.36414 10.4982 8.3331C10.6572 8.30207 10.8034 8.22469 10.9184 8.11072C11.0335 7.99675 11.1122 7.85129 11.1448 7.69265L11.1455 7.6874L11.5318 5.7479C12.4573 6.52896 13.1254 7.57126 13.4486 8.73834C13.7719 9.90543 13.7352 11.1429 13.3435 12.2888C12.9517 13.4347 12.2231 14.4357 11.253 15.1606C10.2829 15.8855 9.11655 16.3007 7.9066 16.3517C6.69665 16.4027 5.49948 16.0872 4.47182 15.4465C3.44416 14.8058 2.63389 13.8697 2.14707 12.7609C1.66025 11.652 1.51957 10.422 1.74345 9.23182C1.96732 8.04167 2.54532 6.94684 3.40178 6.09065C3.54392 5.93463 3.62047 5.72985 3.61553 5.51885C3.61059 5.30786 3.52453 5.10688 3.37525 4.95769C3.22596 4.80851 3.02493 4.72258 2.81393 4.71778C2.60294 4.71297 2.3982 4.78966 2.24228 4.9319L2.24303 4.93114C1.53054 5.64159 0.965498 6.48586 0.580393 7.41541C0.195288 8.34497 -0.00228577 9.34148 -0.000970034 10.3476C-0.000970034 14.5776 3.42803 18.0066 7.65803 18.0066C11.888 18.0066 15.317 14.5776 15.317 10.3476C15.317 7.6949 13.9685 5.35714 11.9195 3.98239L11.8918 3.96515L11.8895 3.96439Z" fill="#FF499E"/>
</g>
<defs>
<clipPath id="clip0_613_1380">
<rect width="15" height="18" fill="white"/>
</clipPath>
</defs>
</svg>
