<svg width="10" height="10" viewBox="0 0 10 10" fill="none" xmlns="http://www.w3.org/2000/svg">
<path fill-rule="evenodd" clip-rule="evenodd" d="M4.49951 1.6842e-08C3.7807 7.78497e-05 3.07237 0.17235 2.4338 0.502397C1.79524 0.832443 1.24504 1.31066 0.829246 1.89701C0.413454 2.48336 0.144177 3.16079 0.043955 3.87258C-0.0562667 4.58437 0.0154839 5.30981 0.2532 5.98818C0.490916 6.66655 0.887681 7.2781 1.41028 7.77164C1.93288 8.26518 2.5661 8.62635 3.25695 8.82491C3.94779 9.02347 4.67615 9.05364 5.38105 8.91291C6.08595 8.77217 6.74688 8.46462 7.30851 8.016L9.14601 9.8535C9.24031 9.94458 9.36662 9.99498 9.49771 9.99384C9.62881 9.9927 9.75422 9.94011 9.84692 9.84741C9.93963 9.75471 9.99221 9.6293 9.99335 9.4982C9.99449 9.3671 9.94409 9.2408 9.85301 9.1465L8.01551 7.309C8.54451 6.64693 8.87581 5.84894 8.97126 5.00689C9.06672 4.16483 8.92246 3.31293 8.55509 2.54925C8.18772 1.78556 7.61217 1.14114 6.89469 0.690147C6.17721 0.239154 5.34696 -7.32887e-05 4.49951 1.6842e-08ZM1.49951 4.5C1.49951 4.10603 1.57711 3.71593 1.72787 3.35195C1.87864 2.98797 2.09962 2.65726 2.37819 2.37868C2.65677 2.1001 2.98749 1.87913 3.35146 1.72836C3.71544 1.5776 4.10555 1.5 4.49951 1.5C4.89348 1.5 5.28359 1.5776 5.64756 1.72836C6.01154 1.87913 6.34226 2.1001 6.62083 2.37868C6.89941 2.65726 7.12039 2.98797 7.27115 3.35195C7.42192 3.71593 7.49951 4.10603 7.49951 4.5C7.49951 5.29565 7.18344 6.05871 6.62083 6.62132C6.05822 7.18393 5.29516 7.5 4.49951 7.5C3.70386 7.5 2.9408 7.18393 2.37819 6.62132C1.81558 6.05871 1.49951 5.29565 1.49951 4.5Z" fill="white"/>
</svg>
