<svg width="21" height="21" viewBox="0 0 21 21" fill="none" xmlns="http://www.w3.org/2000/svg">
<path d="M20.9481 1.17199C21.0045 1.0157 21.0152 0.846596 20.979 0.684439C20.9428 0.522283 20.8612 0.373781 20.7437 0.256298C20.6262 0.138815 20.4777 0.0572062 20.3156 0.0210139C20.1534 -0.0151784 19.9843 -0.00445832 19.828 0.0519207L0.576782 7.05237C0.410189 7.11277 0.265859 7.22233 0.16289 7.36655C0.0599204 7.51077 0.00316363 7.68285 0.000128423 7.86003C-0.00290678 8.03721 0.0479227 8.21114 0.145892 8.3588C0.243861 8.50646 0.384353 8.6209 0.548781 8.68697L8.30702 11.7899L13.3823 6.38207L14.6197 7.6194L9.40434 13.1778L12.313 20.4512C12.3789 20.6157 12.4932 20.7563 12.6408 20.8544C12.7883 20.9526 12.9622 21.0036 13.1394 21.0007C13.3165 20.9979 13.4887 20.9413 13.633 20.8385C13.7773 20.7357 13.887 20.5915 13.9476 20.425L20.9481 1.17199Z" fill="white"/>
<path d="M20.9481 1.17199C21.0045 1.0157 21.0152 0.846596 20.979 0.684439C20.9428 0.522283 20.8612 0.373781 20.7437 0.256298C20.6262 0.138815 20.4777 0.0572062 20.3156 0.0210139C20.1534 -0.0151784 19.9843 -0.00445832 19.828 0.0519207L0.576782 7.05237C0.410189 7.11277 0.265859 7.22233 0.16289 7.36655C0.0599204 7.51077 0.00316363 7.68285 0.000128423 7.86003C-0.00290678 8.03721 0.0479227 8.21114 0.145892 8.3588C0.243861 8.50646 0.384353 8.6209 0.548781 8.68697L8.30702 11.7899L13.3823 6.38207L14.6197 7.6194L9.40434 13.1778L12.313 20.4512C12.3789 20.6157 12.4932 20.7563 12.6408 20.8544C12.7883 20.9526 12.9622 21.0036 13.1394 21.0007C13.3165 20.9979 13.4887 20.9413 13.633 20.8385C13.7773 20.7357 13.887 20.5915 13.9476 20.425L20.9481 1.17199Z" fill="white"/>
</svg>
