<svg width="24" height="24" viewBox="0 0 24 24" fill="none" xmlns="http://www.w3.org/2000/svg">
<path d="M12.0121 9.15468C11.3113 9.15468 10.6551 9.42655 10.1582 9.92343C9.66366 10.4203 9.38944 11.0766 9.38944 11.7773C9.38944 12.4781 9.66366 13.1344 10.1582 13.6312C10.6551 14.1258 11.3113 14.4 12.0121 14.4C12.7129 14.4 13.3691 14.1258 13.866 13.6312C14.3605 13.1344 14.6348 12.4781 14.6348 11.7773C14.6348 11.0766 14.3605 10.4203 13.866 9.92343C13.6233 9.67887 13.3345 9.48498 13.0162 9.35301C12.6979 9.22104 12.3566 9.15362 12.0121 9.15468ZM21.6754 14.6742L20.1426 13.3641C20.2152 12.9187 20.2527 12.4641 20.2527 12.0117C20.2527 11.5594 20.2152 11.1023 20.1426 10.6594L21.6754 9.34921C21.7912 9.25008 21.874 9.11806 21.913 8.97069C21.9519 8.82332 21.9451 8.66759 21.8933 8.52421L21.8723 8.46327C21.4504 7.28364 20.8183 6.1902 20.0066 5.23593L19.9644 5.18671C19.8659 5.07081 19.7345 4.9875 19.5877 4.94776C19.4408 4.90801 19.2853 4.91369 19.1418 4.96405L17.2387 5.64139C16.5355 5.06483 15.7527 4.61014 14.9043 4.29374L14.5363 2.30389C14.5086 2.15399 14.4358 2.01609 14.3278 1.9085C14.2198 1.80091 14.0816 1.72873 13.9316 1.70155L13.8683 1.68983C12.6496 1.46952 11.3652 1.46952 10.1465 1.68983L10.0832 1.70155C9.93318 1.72873 9.79499 1.80091 9.68699 1.9085C9.57898 2.01609 9.50626 2.15399 9.4785 2.30389L9.10819 4.30311C8.26778 4.62203 7.48489 5.07561 6.79022 5.64608L4.87303 4.96405C4.72952 4.91329 4.57395 4.9074 4.42701 4.94717C4.28006 4.98695 4.1487 5.07049 4.05038 5.18671L4.00819 5.23593C3.19793 6.19121 2.566 7.28438 2.14257 8.46327L2.12147 8.52421C2.016 8.81718 2.10272 9.1453 2.33944 9.34921L3.891 10.6734C3.81835 11.1141 3.78319 11.5641 3.78319 12.0094C3.78319 12.4594 3.81835 12.9094 3.891 13.3453L2.34413 14.6695C2.22834 14.7686 2.14546 14.9007 2.10653 15.048C2.06759 15.1954 2.07444 15.3511 2.12616 15.4945L2.14725 15.5555C2.57147 16.7344 3.19725 17.8242 4.01288 18.7828L4.05506 18.832C4.15363 18.9479 4.285 19.0312 4.43185 19.071C4.57871 19.1107 4.73416 19.105 4.87772 19.0547L6.79491 18.3726C7.49335 18.9469 8.27147 19.4016 9.11288 19.7156L9.48319 21.7148C9.51095 21.8647 9.58367 22.0026 9.69167 22.1102C9.79968 22.2178 9.93787 22.29 10.0879 22.3172L10.1512 22.3289C11.3819 22.5504 12.6423 22.5504 13.873 22.3289L13.9363 22.3172C14.0863 22.29 14.2245 22.2178 14.3325 22.1102C14.4405 22.0026 14.5132 21.8647 14.541 21.7148L14.909 19.725C15.7574 19.4062 16.5402 18.9539 17.2433 18.3773L19.1465 19.0547C19.29 19.1054 19.4456 19.1113 19.5925 19.0716C19.7394 19.0318 19.8708 18.9482 19.9691 18.832L20.0113 18.7828C20.8269 17.8195 21.4527 16.7344 21.8769 15.5555L21.898 15.4945C21.9988 15.2039 21.9121 14.8781 21.6754 14.6742ZM12.0121 15.8976C9.73631 15.8976 7.89178 14.0531 7.89178 11.7773C7.89178 9.50155 9.73631 7.65702 12.0121 7.65702C14.2879 7.65702 16.1324 9.50155 16.1324 11.7773C16.1324 14.0531 14.2879 15.8976 12.0121 15.8976Z" fill="#FF499E"/>
</svg>
