<svg width="46" height="46" viewBox="0 0 46 46" fill="none" xmlns="http://www.w3.org/2000/svg">
<path fill-rule="evenodd" clip-rule="evenodd" d="M39.8159 11.1879C39.9309 11.4507 39.7075 11.7399 39.4216 11.7169C38.495 11.6446 37.5466 11.5679 36.5762 11.4869C33.4219 11.2339 30.0836 10.9611 26.6599 10.8363C26.2298 10.8227 25.8218 10.6429 25.5215 10.3347C25.2213 10.0265 25.0522 9.61384 25.0499 9.18357V2.53985C25.0499 1.61985 25.8056 0.877281 26.7256 0.910138C28.9726 1.00339 31.2165 1.15898 33.4548 1.37671C34.7691 1.49828 35.8731 2.42157 36.3692 3.67671C36.9935 5.25714 37.7295 6.785 38.4753 8.34242C38.9244 9.269 39.3712 10.2175 39.8159 11.1879ZM20.9461 9.18357C20.9437 9.61384 20.7747 10.0265 20.4744 10.3347C20.1742 10.6429 19.7661 10.8227 19.3361 10.8363C15.9123 10.9611 12.5741 11.2306 9.42305 11.4901L6.57105 11.7169C6.24248 11.7431 5.98619 11.4146 6.11762 11.1123C6.64334 9.90971 7.20191 8.73014 7.76048 7.56371C8.39791 6.21657 9.03205 4.88914 9.59391 3.55842C9.8275 2.97233 10.2159 2.4607 10.7176 2.07818C11.2194 1.69566 11.8156 1.45661 12.4426 1.38657C14.7136 1.16371 16.9904 1.00484 19.2703 0.910138C20.1903 0.877281 20.9461 1.61985 20.9461 2.53985V9.18357ZM3.79462 39.629C4.03777 41.17 5.31919 42.3561 6.88648 42.4777L9.81405 42.7077C14.0723 43.056 18.4818 43.4141 22.9996 43.4141C27.5175 43.4141 31.9203 43.056 36.1786 42.711C37.1643 42.6278 38.1413 42.55 39.1095 42.4777C40.6768 42.3561 41.9582 41.17 42.1981 39.629L42.3722 38.5546C42.8585 35.5186 43.3645 32.3709 43.3645 29.1443C43.3645 25.9177 42.8585 22.77 42.3722 19.7373L42.2013 18.6596C42.0805 17.9066 41.7098 17.2163 41.149 16.6995C40.5881 16.1828 39.8698 15.8698 39.1095 15.8109L36.1786 15.5809C31.9203 15.2293 27.5142 14.8711 22.9996 14.8711C18.4851 14.8711 14.0756 15.2326 9.81734 15.5743C8.83162 15.6575 7.85467 15.7353 6.88648 15.8076C6.12599 15.8649 5.40717 16.1775 4.84657 16.6946C4.28596 17.2116 3.91644 17.9029 3.79791 18.6563L3.62377 19.7307C3.13748 22.7766 2.63477 25.921 2.63477 29.1443C2.63477 32.3676 3.13748 35.5186 3.62377 38.5546L3.79462 39.629ZM26.5055 34.7464C26.5055 33.6096 27.4255 32.6929 28.5591 32.6929H35.1995C35.4692 32.6929 35.7362 32.746 35.9853 32.8492C36.2345 32.9524 36.4609 33.1036 36.6516 33.2943C36.8423 33.485 36.9935 33.7114 37.0967 33.9606C37.1999 34.2097 37.2531 34.4767 37.2531 34.7464C37.2531 35.0161 37.1999 35.2831 37.0967 35.5323C36.9935 35.7814 36.8423 36.0078 36.6516 36.1985C36.4609 36.3892 36.2345 36.5405 35.9853 36.6437C35.7362 36.7469 35.4692 36.8 35.1995 36.8H28.5623C28.2924 36.8004 28.025 36.7476 27.7755 36.6446C27.5259 36.5416 27.2992 36.3904 27.1081 36.1997C26.9171 36.0089 26.7655 35.7824 26.6621 35.5331C26.5587 35.2837 26.5055 35.0164 26.5055 34.7464Z" fill="#FF499E" fill-opacity="0.8"/>
</svg>
