<svg width="39" height="33" viewBox="0 0 39 33" fill="none" xmlns="http://www.w3.org/2000/svg">
<path d="M17.5962 32.1055C18.9872 32.1055 20.1148 30.9779 20.1148 29.5869C20.1148 28.196 18.9872 27.0684 17.5962 27.0684C16.2052 27.0684 15.0776 28.196 15.0776 29.5869C15.0776 30.9779 16.2052 32.1055 17.5962 32.1055Z" fill="url(#paint0_linear_74_1210)"/>
<path d="M34.245 8.78774C32.2039 -1.29335 21.0358 -0.0272167 19.8451 0.136515C19.7688 0.146802 19.6908 0.156231 19.6136 0.162231L14.1762 0.633711C10.5852 1.06404 11.2479 4.63443 11.2479 4.63443L12.0494 14.2629C14.8988 13.8017 16.6433 14.905 16.6433 14.905C21.9796 18.0545 18.6295 22.2463 18.6295 22.2463C24.577 21.9463 25.9109 21.5151 25.9109 21.5151C36.5818 18.4959 34.245 8.78774 34.245 8.78774ZM25.682 15.4896C24.9765 15.8882 24.1853 16.1094 23.3778 16.1643L19.5022 16.4291L18.6295 5.98886L22.3859 5.69826C22.962 5.65368 23.5432 5.68112 24.1081 5.80456C27.5096 6.54607 27.9271 9.74956 27.9271 9.74956C28.5298 13.1185 27.0219 14.7327 25.682 15.4896Z" fill="url(#paint1_linear_74_1210)"/>
<path d="M18.2388 18.0416C17.8496 17.1269 16.9418 15.9842 14.8219 15.517C13.4383 15.2127 11.9887 15.307 10.6883 15.8711C9.573 16.3546 8.40116 17.2452 8.10541 18.8808C8.01369 19.39 8.04884 19.9181 8.22114 20.4058C8.46202 21.0848 9.01751 22.0175 10.3025 22.705C10.3822 22.7478 10.432 22.8301 10.432 22.9201C10.4294 23.2424 10.3428 24.0277 9.62872 24.7863C9.59358 24.824 9.61758 24.8858 9.66901 24.89C10.1191 24.9303 11.6809 24.9449 12.9685 23.413C13.0217 23.3496 13.0997 23.3136 13.182 23.3162C13.9012 23.3376 17.433 23.2913 18.3365 20.3758C18.574 19.6078 18.5534 18.7822 18.2388 18.0416ZM11.4186 20.057C11.0646 20.057 10.7774 19.7698 10.7774 19.4149C10.7774 19.0608 11.0646 18.7737 11.4186 18.7737C11.7727 18.7737 12.0598 19.0608 12.0598 19.4149C12.0598 19.7698 11.7727 20.057 11.4186 20.057ZM13.2763 20.057C12.9222 20.057 12.6351 19.7698 12.6351 19.4149C12.6351 19.0608 12.9222 18.7737 13.2763 18.7737C13.6312 18.7737 13.9183 19.0608 13.9183 19.4149C13.9183 19.7698 13.6312 20.057 13.2763 20.057ZM15.1348 20.057C14.7799 20.057 14.4927 19.7698 14.4927 19.4149C14.4927 19.0608 14.7799 18.7737 15.1348 18.7737C15.4888 18.7737 15.776 19.0608 15.776 19.4149C15.776 19.7698 15.4888 20.057 15.1348 20.057Z" fill="url(#paint2_linear_74_1210)"/>
<path d="M0.237783 9.92104C-0.0313897 9.47442 -0.0725374 8.9215 0.116912 8.43631C0.326935 7.89796 0.844707 7.24989 2.12113 7.20274L5.65467 6.949C6.55391 6.88471 7.45829 7.0733 8.23752 7.52592C9.13162 8.04541 10.0429 8.9918 10.2452 10.7123L10.6412 14.6393C10.6412 14.6393 8.74586 15.1656 7.61688 17.1064C7.61688 17.1064 6.97481 12.8288 6.86508 11.2086C6.86851 11.2129 6.91052 10.2074 5.76696 10.3514L1.73538 10.6523C1.73452 10.6531 0.751268 10.7723 0.237783 9.92104Z" fill="url(#paint3_linear_74_1210)"/>
<path d="M12.1001 25.3358C12.1001 25.3358 13.0233 25.0195 13.2762 24.5086C13.2762 24.5086 16.1917 24.5986 17.7261 23.1096C17.7261 23.1096 26.0508 26.2188 32.6301 19.1783C32.6301 19.1783 36.1602 16.31 35.5987 9.71012C35.5987 9.71012 35.5387 8.10537 37.3037 7.94507C37.3037 7.94507 38.8082 7.94507 38.9085 9.5301C38.9085 9.5301 39.7211 15.4073 36.5014 20.7933C36.5014 20.7933 35.5987 22.9981 33.1916 25.1198C33.1916 25.1198 31.0253 24.2934 29.3803 25.5373C29.3803 25.5373 28.001 26.4048 27.821 28.0747C27.821 28.0747 26.7769 28.415 25.431 28.6927C25.0024 28.781 24.566 28.8299 24.128 28.8393L21.1405 28.9019C21.1405 28.9019 20.5036 26.7802 18.0716 26.4648C17.9816 26.4648 16.1163 26.1793 14.9727 27.4429C14.9736 27.442 12.629 26.1519 12.1001 25.3358Z" fill="url(#paint4_linear_74_1210)"/>
<path d="M31.5566 30.541C32.9476 30.541 34.0752 29.4134 34.0752 28.0225C34.0752 26.6315 32.9476 25.5039 31.5566 25.5039C30.1657 25.5039 29.0381 26.6315 29.0381 28.0225C29.0381 29.4134 30.1657 30.541 31.5566 30.541Z" fill="url(#paint5_linear_74_1210)"/>
<defs>
<linearGradient id="paint0_linear_74_1210" x1="19.487" y1="26.1572" x2="15.0982" y2="31.6206" gradientUnits="userSpaceOnUse">
<stop stop-color="#FF499E"/>
<stop offset="1" stop-color="#7E5EFF"/>
</linearGradient>
<linearGradient id="paint1_linear_74_1210" x1="37.4441" y1="21.1673" x2="5.26277" y2="6.28501" gradientUnits="userSpaceOnUse">
<stop stop-color="#72E8EA"/>
<stop offset="0.5251" stop-color="#7E5EFF"/>
<stop offset="1" stop-color="#FF499E"/>
</linearGradient>
<linearGradient id="paint2_linear_74_1210" x1="19.8357" y1="24.4379" x2="5.62204" y2="17.5688" gradientUnits="userSpaceOnUse">
<stop stop-color="#72E8EA"/>
<stop offset="0.5251" stop-color="#7E5EFF"/>
<stop offset="1" stop-color="#FF499E"/>
</linearGradient>
<linearGradient id="paint3_linear_74_1210" x1="12.0055" y1="16.6131" x2="-2.7123" y2="9.8022" gradientUnits="userSpaceOnUse">
<stop stop-color="#72E8EA"/>
<stop offset="0.5251" stop-color="#7E5EFF"/>
<stop offset="1" stop-color="#FF499E"/>
</linearGradient>
<linearGradient id="paint4_linear_74_1210" x1="42.4486" y1="27.8854" x2="8.2854" y2="8.49177" gradientUnits="userSpaceOnUse">
<stop stop-color="#72E8EA"/>
<stop offset="0.5251" stop-color="#7E5EFF"/>
<stop offset="1" stop-color="#FF499E"/>
</linearGradient>
<linearGradient id="paint5_linear_74_1210" x1="33.4474" y1="24.5927" x2="29.0587" y2="30.0561" gradientUnits="userSpaceOnUse">
<stop stop-color="#FF499E"/>
<stop offset="1" stop-color="#7E5EFF"/>
</linearGradient>
</defs>
</svg>
