<svg width="20" height="20" viewBox="0 0 20 20" fill="none" xmlns="http://www.w3.org/2000/svg">
<path d="M9.16602 18.3333V16.8125L7.83268 17.9375L6.74935 16.6667L9.16602 14.625V11.4583L6.41602 13.0417L5.85352 16.1458L4.20768 15.8542L4.52018 14.125L3.18685 14.8958L2.35352 13.4583L3.68685 12.6875L2.04102 12.0833L2.60352 10.5208L5.58268 11.5833L8.33268 9.99999L5.58268 8.41666L2.60352 9.49999L2.04102 7.91666L3.68685 7.33332L2.35352 6.56249L3.18685 5.12499L4.52018 5.89582L4.20768 4.16666L5.85352 3.87499L6.41602 6.97916L9.16602 8.56249V5.39582L6.74935 3.35416L7.83268 2.08332L9.16602 3.20832V1.66666H10.8327V3.20832L12.166 2.08332L13.2493 3.35416L10.8327 5.39582V8.56249L13.5618 6.97916L14.1243 3.87499L15.7702 4.16666L15.4577 5.89582L16.791 5.12499L17.6243 6.56249L16.291 7.33332L17.9368 7.91666L17.3743 9.49999L14.3952 8.41666L11.666 9.99999L14.3952 11.5833L17.3743 10.5208L17.9368 12.0833L16.291 12.6875L17.6243 13.4583L16.791 14.8958L15.4577 14.125L15.7702 15.8542L14.1243 16.1458L13.5618 13.0417L10.8327 11.4583V14.625L13.2493 16.6667L12.166 17.9375L10.8327 16.8125V18.3333H9.16602Z" fill="white"/>
</svg>
