<svg width="18" height="18" viewBox="0 0 18 18" fill="none" xmlns="http://www.w3.org/2000/svg">
<path d="M7.01238 1.35349C7.61038 -0.396509 10.0284 -0.449509 10.7374 1.19449L10.7974 1.35449L11.6044 3.71449C11.7893 4.25572 12.0882 4.751 12.4808 5.16691C12.8734 5.58283 13.3507 5.9097 13.8804 6.12549L14.0974 6.20649L16.4574 7.01249C18.2074 7.61049 18.2604 10.0285 16.6174 10.7375L16.4574 10.7975L14.0974 11.6045C13.556 11.7893 13.0605 12.0881 12.6444 12.4807C12.2283 12.8734 11.9013 13.3507 11.6854 13.8805L11.6044 14.0965L10.7984 16.4575C10.2004 18.2075 7.78238 18.2605 7.07438 16.6175L7.01238 16.4575L6.20638 14.0975C6.02156 13.5561 5.72275 13.0606 5.33012 12.6445C4.93749 12.2284 4.46017 11.9014 3.93038 11.6855L3.71438 11.6045L1.35438 10.7985C-0.396622 10.2005 -0.449622 7.78249 1.19438 7.07449L1.35438 7.01249L3.71438 6.20649C4.25561 6.02155 4.75089 5.72269 5.1668 5.33006C5.58271 4.93744 5.90959 4.46018 6.12538 3.93049L6.20638 3.71449L7.01238 1.35349Z" fill="white"/>
</svg>
