<svg width="28" height="28" viewBox="0 0 28 28" fill="none" xmlns="http://www.w3.org/2000/svg">
<path d="M13.9998 2.80005C15.5442 2.80005 16.7998 4.05567 16.7998 5.60005C16.7998 7.14442 15.5442 8.40005 13.9998 8.40005C12.4554 8.40005 11.1998 7.14442 11.1998 5.60005C11.1998 4.05567 12.4554 2.80005 13.9998 2.80005ZM12.5998 9.80005H15.3998C16.9442 9.80005 18.1998 11.0557 18.1998 12.6V14.7C18.1998 15.4744 17.5742 16.1 16.7998 16.1H16.7211L16.2354 20.4532C16.1567 21.1619 15.5573 21.7 14.8442 21.7H13.1511C12.4379 21.7 11.8386 21.1619 11.7598 20.4532L11.2742 16.1H11.1954C10.4211 16.1 9.79543 15.4744 9.79543 14.7V12.6C9.79543 11.0557 11.0511 9.80005 12.5954 9.80005H12.5998ZM20.8423 20.3088C20.1379 20.125 19.3198 19.9763 18.4186 19.8625L18.6504 17.7757C19.6436 17.9025 20.5623 18.0688 21.3673 18.2788C22.3473 18.5325 23.2311 18.8607 23.8961 19.2982C24.5392 19.7182 25.1998 20.3875 25.1998 21.3544C25.1998 22.3213 24.5392 22.9907 23.8961 23.4107C23.2311 23.8438 22.3429 24.1763 21.3673 24.43C19.3942 24.9419 16.7604 25.2088 13.9998 25.2088C11.2392 25.2088 8.60543 24.9419 6.6323 24.43C5.6523 24.1675 4.76855 23.8394 4.10355 23.4063C3.46043 22.9863 2.7998 22.3169 2.7998 21.35C2.7998 20.3832 3.46043 19.7138 4.10355 19.2938C4.76855 18.8607 5.65668 18.5282 6.6323 18.2744C7.44168 18.0644 8.36043 17.8982 9.34918 17.7713L9.58105 19.8625C8.6798 19.9763 7.86168 20.1294 7.1573 20.3088C4.68105 20.9475 4.68105 21.7482 7.1573 22.3869C8.90293 22.8375 11.3486 23.0957 13.9998 23.0957C16.6511 23.0957 19.0967 22.8375 20.8423 22.3869C23.3186 21.7482 23.3186 20.9475 20.8423 20.3088Z" fill="white"/>
</svg>
