<svg width="20" height="20" viewBox="0 0 20 20" fill="none" xmlns="http://www.w3.org/2000/svg">
<path d="M13.3327 9.99999C13.3327 10.884 12.9815 11.7319 12.3564 12.357C11.7313 12.9821 10.8834 13.3333 9.99935 13.3333C9.11529 13.3333 8.26745 12.9821 7.64233 12.357C7.0172 11.7319 6.66602 10.884 6.66602 9.99999C6.66602 9.11593 7.0172 8.26809 7.64233 7.64297C8.26745 7.01785 9.11529 6.66666 9.99935 6.66666C10.8834 6.66666 11.7313 7.01785 12.3564 7.64297C12.9815 8.26809 13.3327 9.11593 13.3327 9.99999Z" fill="white"/>
<path fill-rule="evenodd" clip-rule="evenodd" d="M7.51321 2.33334C7.39734 2.25211 7.26269 2.20172 7.12196 2.18692C6.98123 2.17213 6.83905 2.19341 6.70882 2.24877C6.57859 2.30413 6.4646 2.39175 6.3776 2.50335C6.2906 2.61495 6.23345 2.74687 6.21154 2.88668L5.84321 5.23668C5.81644 5.40855 5.73656 5.56773 5.61476 5.69192C5.49296 5.81611 5.33536 5.89907 5.16404 5.92918L2.82071 6.34001C2.68127 6.36438 2.55033 6.42388 2.44025 6.51288C2.33017 6.60188 2.24458 6.71745 2.19155 6.8487C2.13852 6.97995 2.11979 7.12254 2.13714 7.26303C2.15449 7.40352 2.20734 7.53727 2.29071 7.65168L3.69321 9.57334C3.79567 9.71393 3.85156 9.88305 3.85306 10.057C3.85455 10.231 3.80157 10.401 3.70154 10.5433L2.33488 12.4908C2.25364 12.6067 2.20325 12.7414 2.18846 12.8821C2.17366 13.0228 2.19495 13.165 2.25031 13.2952C2.30567 13.4255 2.39328 13.5395 2.50488 13.6265C2.61649 13.7135 2.74841 13.7706 2.88821 13.7925L5.23821 14.1608C5.40993 14.1878 5.56893 14.2677 5.69295 14.3895C5.81698 14.5113 5.89982 14.6688 5.92988 14.84L6.34071 17.1833C6.36508 17.3228 6.42457 17.4537 6.51358 17.5638C6.60258 17.6739 6.71815 17.7595 6.8494 17.8125C6.98065 17.8655 7.12324 17.8843 7.26373 17.8669C7.40422 17.8496 7.53797 17.7967 7.65238 17.7133L9.57488 16.3108C9.71546 16.2084 9.88458 16.1525 10.0585 16.151C10.2325 16.1495 10.4026 16.2025 10.5449 16.3025L12.4915 17.6692C12.6074 17.7506 12.7421 17.8012 12.883 17.8161C13.0238 17.831 13.1662 17.8097 13.2965 17.7543C13.4269 17.699 13.541 17.6113 13.628 17.4996C13.7151 17.3878 13.7722 17.2558 13.794 17.1158L14.1607 14.7658C14.1877 14.5939 14.2679 14.4347 14.39 14.3107C14.5122 14.1866 14.67 14.1039 14.8415 14.0742L17.1849 13.6633C17.3242 13.6389 17.4551 13.5793 17.5651 13.4902C17.675 13.4012 17.7605 13.2856 17.8135 13.1544C17.8664 13.0231 17.8851 12.8806 17.8677 12.7401C17.8503 12.5997 17.7974 12.466 17.714 12.3517L16.3124 10.4292C16.2098 10.2887 16.1538 10.1196 16.1521 9.94565C16.1505 9.77169 16.2033 9.60159 16.3032 9.45918L17.6699 7.51251C17.7513 7.39669 17.8019 7.26203 17.8168 7.12124C17.8318 6.98045 17.8106 6.83818 17.7553 6.70784C17.7 6.5775 17.6124 6.4634 17.5008 6.3763C17.3892 6.2892 17.2572 6.23197 17.1174 6.21001L14.7665 5.84251C14.5947 5.81553 14.4356 5.73545 14.3116 5.61351C14.1875 5.49156 14.1048 5.33386 14.0749 5.16251L13.664 2.81918C13.6396 2.67981 13.58 2.54897 13.4909 2.43899C13.4019 2.32902 13.2863 2.24353 13.1551 2.19059C13.0238 2.13764 12.8813 2.11899 12.7408 2.13639C12.6004 2.15378 12.4667 2.20665 12.3524 2.29001L10.4307 3.69168C10.2901 3.79414 10.121 3.85003 9.94705 3.85153C9.77309 3.85302 9.60303 3.80004 9.46071 3.70001L7.51321 2.33334ZM14.1657 10C14.1657 11.1051 13.7267 12.1649 12.9453 12.9463C12.1639 13.7277 11.1041 14.1667 9.99904 14.1667C8.89397 14.1667 7.83417 13.7277 7.05276 12.9463C6.27136 12.1649 5.83238 11.1051 5.83238 10C5.83238 8.89494 6.27136 7.83513 7.05276 7.05373C7.83417 6.27233 8.89397 5.83334 9.99904 5.83334C11.1041 5.83334 12.1639 6.27233 12.9453 7.05373C13.7267 7.83513 14.1657 8.89494 14.1657 10Z" fill="white"/>
</svg>
