<svg width="24" height="24" viewBox="0 0 24 24" fill="none" xmlns="http://www.w3.org/2000/svg">
<path d="M10.1549 14.773L10.1459 14.752C10.0107 14.715 9.87664 14.674 9.74391 14.629L9.73391 14.625C8.35246 14.1524 7.15339 13.2596 6.30453 12.0716C5.45566 10.8837 4.99951 9.46007 4.99991 8.00001C4.99946 6.20812 5.68621 4.48428 6.9187 3.18357C8.15118 1.88286 9.83555 1.10433 11.6249 1.00832C13.4142 0.91232 15.1722 1.50616 16.5368 2.66753C17.9014 3.8289 18.7686 5.46936 18.9599 7.25101C19.0039 7.66301 18.6639 8.00001 18.2499 8.00001C17.8359 8.00001 17.5049 7.66201 17.4499 7.25201C17.3169 6.28428 16.9286 5.36942 16.3249 4.60146C15.7212 3.83349 14.924 3.24012 14.015 2.88234C13.1061 2.52455 12.1183 2.41524 11.1531 2.56566C10.1879 2.71608 9.28018 3.12079 8.52321 3.73819C7.76624 4.3556 7.18733 5.16344 6.84597 6.07868C6.50461 6.99392 6.41311 7.98356 6.58089 8.94587C6.74866 9.90818 7.16965 10.8085 7.80059 11.5542C8.43153 12.2999 9.24967 12.8642 10.1709 13.189C10.3565 12.7695 10.6806 12.4266 11.089 12.2177C11.4973 12.0088 11.9651 11.9466 12.4138 12.0415C12.8626 12.1364 13.2651 12.3827 13.5538 12.7391C13.8426 13.0955 14.0001 13.5403 13.9999 13.999C14.0004 14.4613 13.8407 14.9094 13.548 15.2673C13.2554 15.6251 12.8478 15.8705 12.3946 15.9617C11.9414 16.0529 11.4706 15.9843 11.0623 15.7676C10.654 15.5509 10.3333 15.1994 10.1549 14.773ZM9.12991 16.003C7.95084 15.5795 6.87996 14.9007 5.99391 14.015C5.44605 14.0787 4.94068 14.3415 4.57381 14.7533C4.20694 15.1652 4.00413 15.6975 4.00391 16.249V17.169C4.00391 17.741 4.18191 18.299 4.51391 18.765C6.05591 20.929 8.57991 22 11.9999 22C15.4199 22 17.9449 20.928 19.4899 18.765C19.8234 18.2985 20.0028 17.7395 20.0029 17.166V16.248C20.0029 15.6516 19.7661 15.0796 19.3446 14.6577C18.9231 14.2358 18.3513 13.9985 17.7549 13.998H15.4999C15.5001 14.7429 15.2626 15.4683 14.822 16.0689C14.3815 16.6695 13.7608 17.1139 13.0503 17.3374C12.3397 17.5609 11.5764 17.552 10.8714 17.3118C10.1663 17.0716 9.55623 16.6138 9.12991 16.003ZM15.9999 8.00001C15.9999 7.41544 15.8718 6.83797 15.6245 6.30825C15.3773 5.77854 15.017 5.30945 14.5689 4.93401C14.153 4.58608 13.6706 4.32635 13.1512 4.17061C12.6318 4.01487 12.0861 3.96637 11.5474 4.02806C11.0086 4.08974 10.4881 4.26033 10.0173 4.52944C9.54652 4.79856 9.13538 5.16059 8.80886 5.59353C8.48234 6.02647 8.24725 6.52128 8.1179 7.04789C7.98854 7.5745 7.96761 8.12192 8.05637 8.65687C8.14514 9.19182 8.34175 9.70314 8.63426 10.1597C8.92676 10.6164 9.30906 11.0087 9.75791 11.313C10.387 10.7879 11.1804 10.5002 11.9999 10.5C12.8529 10.5 13.6349 10.805 14.2429 11.313C14.7842 10.9464 15.2274 10.4527 15.5337 9.87517C15.84 9.2976 16.0001 8.65377 15.9999 8.00001Z" fill="#FF499E"/>
</svg>
