<svg width="20" height="20" viewBox="0 0 20 20" fill="none" xmlns="http://www.w3.org/2000/svg">
<path d="M4 4C4 2.89688 4.89688 2 6 2H10.6719C11.2031 2 11.7125 2.20937 12.0875 2.58437L15.4156 5.91563C15.7906 6.29063 16 6.8 16 7.33125V16C16 17.1031 15.1031 18 14 18H6C4.89688 18 4 17.1031 4 16V4ZM10.5 3.82812V6.75C10.5 7.16563 10.8344 7.5 11.25 7.5H14.1719L10.5 3.82812ZM6.75 4C6.33437 4 6 4.33437 6 4.75C6 5.16563 6.33437 5.5 6.75 5.5H8.25C8.66563 5.5 9 5.16563 9 4.75C9 4.33437 8.66563 4 8.25 4H6.75ZM6.75 7C6.33437 7 6 7.33437 6 7.75C6 8.16563 6.33437 8.5 6.75 8.5H8.25C8.66563 8.5 9 8.16563 9 7.75C9 7.33437 8.66563 7 8.25 7H6.75ZM8.94687 12C8.59375 12 8.2625 12.1594 8.04375 12.4344L6.16563 14.7812C5.90625 15.1031 5.95938 15.5781 6.28125 15.8344C6.60313 16.0906 7.07812 16.0406 7.33437 15.7156L8.80625 13.8781L9.28125 15.4625C9.375 15.7812 9.66875 15.9969 10 15.9969H13.25C13.6656 15.9969 14 15.6625 14 15.2469C14 14.8313 13.6656 14.4969 13.25 14.4969H10.5594L10.0562 12.8219C9.90937 12.3312 9.45937 11.9969 8.94687 11.9969V12Z" fill="#FF499E"/>
</svg>
