<svg width="20" height="23" viewBox="0 0 20 23" fill="none" xmlns="http://www.w3.org/2000/svg">
<path d="M11.4707 22.4554C15.1177 21.725 19.8333 19.1012 19.8333 12.317C19.8333 6.14421 15.3148 2.03287 12.0657 0.144041C11.3435 -0.275959 10.5 0.275875 10.5 1.11004V3.24271C10.5 4.92504 9.793 7.99571 7.82833 9.27321C6.825 9.92537 5.74 8.94888 5.61867 7.75887L5.51833 6.78121C5.40167 5.64487 4.24433 4.95537 3.33667 5.64837C1.7045 6.89087 0 9.07254 0 12.3159C0 20.612 6.1705 22.6875 9.25517 22.6875C9.43561 22.6875 9.62383 22.6817 9.81983 22.67C8.29617 22.5405 5.83333 21.5955 5.83333 18.5389C5.83333 16.1472 7.5775 14.5314 8.90283 13.7439C9.25983 13.5339 9.67633 13.808 9.67633 14.2222V14.9105C9.67633 15.4355 9.8805 16.258 10.3647 16.8204C10.913 17.4574 11.7168 16.79 11.781 15.9524C11.802 15.6887 12.068 15.5207 12.2967 15.6537C13.0445 16.0912 14 17.0245 14 18.5389C14 20.9282 12.6828 22.0272 11.4707 22.4554Z" fill="white"/>
</svg>
