<svg width="24" height="24" viewBox="0 0 24 24" fill="none" xmlns="http://www.w3.org/2000/svg">
<path d="M9.03809 3.75269C9.07712 3.7587 9.11444 3.77353 9.14648 3.79663C9.17853 3.81974 9.20462 3.85035 9.22266 3.8855C9.23167 3.90312 9.23856 3.92205 9.24316 3.94116L9.25 3.99976C9.24762 4.71207 9.52171 5.39757 10.0146 5.91187C10.5085 6.42687 11.1835 6.72974 11.8965 6.75659C12.6096 6.78337 13.3058 6.53202 13.8369 6.05542C14.3679 5.57884 14.6928 4.91457 14.7432 4.20288L14.7441 4.19019V4.17847L14.752 3.97925L14.7559 3.95386L14.7686 3.90894L14.7803 3.88062L14.7832 3.87476L14.8066 3.84253L14.8242 3.82202C14.8385 3.80927 14.8522 3.79881 14.8652 3.78979L14.8877 3.7771L14.9189 3.76343L14.9385 3.75757L14.9785 3.75073H14.9873L15.0215 3.75171L15.0498 3.75562L15.1035 3.77026L21.0791 5.76245C21.1239 5.77745 21.1635 5.80496 21.1934 5.84155C21.2216 5.87629 21.2395 5.91848 21.2461 5.96265L21.25 6.02905V10.9998C21.25 11.061 21.2272 11.12 21.1865 11.1658C21.1476 11.2095 21.0948 11.2371 21.0371 11.2458L20.9844 11.2498H20C19.0336 11.2498 18.2501 12.0334 18.25 12.9998V18.9998C18.2501 19.315 18.1312 19.6191 17.917 19.8503C17.7294 20.0526 17.4807 20.187 17.2109 20.2332L17.0938 20.2468L17 20.2498H7C6.68468 20.2499 6.38064 20.1311 6.14941 19.9167C5.92052 19.7045 5.77968 19.4141 5.75391 19.1033L5.75 18.9753V12.9998C5.74987 12.0334 4.96642 11.2498 4 11.2498H3L2.95508 11.2458C2.91045 11.2377 2.86835 11.2177 2.83398 11.1873C2.79039 11.1485 2.76173 11.0953 2.75293 11.0378L2.75 10.9714V5.99976L2.75977 5.92944C2.7663 5.90708 2.77646 5.88584 2.78906 5.86597C2.81309 5.82817 2.84689 5.79737 2.88672 5.7771L2.94629 5.75366L8.9209 3.76245C8.95848 3.74993 8.99893 3.7467 9.03809 3.75269Z" stroke="white" stroke-width="1.5"/>
</svg>
