<svg width="20" height="18" viewBox="0 0 20 18" fill="none" xmlns="http://www.w3.org/2000/svg">
<path d="M12.883 0.00724096L12.978 0.000240987L13.09 0.00424094L13.203 0.0212409L13.316 0.0512411L19.316 2.05124C19.4964 2.11137 19.6558 2.22167 19.7757 2.36921C19.8956 2.51674 19.971 2.6954 19.993 2.88424L20 3.00024V8.00024C20 8.24517 19.91 8.48158 19.7473 8.66461C19.5845 8.84765 19.3602 8.96458 19.117 8.99324L19 9.00024H17V16.0002C17.0002 16.5048 16.8096 16.9908 16.4665 17.3608C16.1234 17.7308 15.6532 17.9574 15.15 17.9952L15 18.0002H5C4.49542 18.0004 4.00943 17.8098 3.63945 17.4667C3.26947 17.1237 3.04284 16.6534 3.005 16.1502L3 16.0002V9.00024H1C0.755067 9.00021 0.518663 8.91028 0.335628 8.74753C0.152593 8.58477 0.0356572 8.36049 0.00700003 8.11724L5.70719e-08 8.00024V3.00024C-6.41737e-05 2.81009 0.0540887 2.62386 0.156108 2.46339C0.258128 2.30292 0.403785 2.17487 0.576 2.09424L0.684 2.05124L6.684 0.0512411C6.83433 0.00117028 6.99441 -0.0124602 7.15104 0.0114734C7.30768 0.0354069 7.45638 0.0962191 7.5849 0.188899C7.71343 0.281578 7.81808 0.403471 7.89025 0.544534C7.96242 0.685596 8.00004 0.841789 8 1.00024C7.99768 1.51922 8.19719 2.01879 8.55638 2.39339C8.91557 2.768 9.40631 2.98831 9.92494 3.00778C10.4436 3.02726 10.9494 2.84437 11.3357 2.49775C11.722 2.15113 11.9584 1.66794 11.995 1.15024L12.004 0.910241L12.021 0.797241L12.058 0.663241L12.102 0.560241L12.152 0.468241L12.22 0.375241L12.289 0.295241C12.3443 0.241908 12.4027 0.195241 12.464 0.155241L12.56 0.102241L12.663 0.0582411L12.771 0.026241L12.883 0.00724096Z" fill="white"/>
</svg>
