<svg width="20" height="20" viewBox="0 0 20 20" fill="none" xmlns="http://www.w3.org/2000/svg">
<path d="M7.08333 18.3334C9.61464 18.3334 11.6667 16.2813 11.6667 13.75C11.6667 11.2187 9.61464 9.16669 7.08333 9.16669C4.55203 9.16669 2.5 11.2187 2.5 13.75C2.5 16.2813 4.55203 18.3334 7.08333 18.3334Z" stroke="white" stroke-width="1.5" stroke-linecap="round" stroke-linejoin="round"/>
<path d="M12.9173 18.3334C15.4486 18.3334 17.5007 16.2813 17.5007 13.75C17.5007 11.2187 15.4486 9.16669 12.9173 9.16669C10.386 9.16669 8.33398 11.2187 8.33398 13.75C8.33398 16.2813 10.386 18.3334 12.9173 18.3334Z" stroke="white" stroke-width="1.5" stroke-linecap="round" stroke-linejoin="round"/>
<path d="M9.99935 7.50002C9.99935 7.50002 13.3327 5.95585 13.3327 3.44919C13.3327 2.46502 12.631 1.66669 11.666 1.66669C10.8768 1.66669 10.3502 2.01002 9.99935 2.69585C9.64852 2.01002 9.12185 1.66669 8.33268 1.66669C7.36768 1.66669 6.66602 2.46502 6.66602 3.44919C6.66602 5.95585 9.99935 7.50002 9.99935 7.50002Z" stroke="white" stroke-width="1.5" stroke-linejoin="round"/>
</svg>
